<svg width="109" height="109" viewBox="0 0 109 109" fill="none" xmlns="http://www.w3.org/2000/svg">
<path d="M12.2572 18.1879L79.5167 4.79525C84.6624 3.77064 89.6644 7.11144 90.689 12.2571L104.082 79.5166C105.106 84.6623 101.765 89.6643 96.6198 90.6889L29.3603 104.082C24.2146 105.106 19.2126 101.765 18.188 96.6197L4.79529 29.3602C3.77069 24.2145 7.11149 19.2125 12.2572 18.1879Z" fill="url(#paint0_linear_210_2)" stroke="black" stroke-width="5"/>
<path fill-rule="evenodd" clip-rule="evenodd" d="M18.5954 33.717C21.0367 33.2309 22.6212 30.8561 22.1347 28.4126C21.6481 25.969 19.2748 24.3823 16.8335 24.8684C14.3922 25.3545 12.8077 27.7293 13.2943 30.1728C13.7809 32.6164 16.1542 34.2031 18.5954 33.717ZM33.3294 30.7832C35.7707 30.2971 37.3552 27.9223 36.8686 25.4787C36.3821 23.0352 34.0087 21.4485 31.5675 21.9346C29.1262 22.4207 27.5417 24.7955 28.0282 27.239C28.5148 29.6826 30.8881 31.2693 33.3294 30.7832ZM51.6026 22.5449C52.0891 24.9885 50.5046 27.3633 48.0633 27.8494C45.6221 28.3355 43.2487 26.7488 42.7622 24.3052C42.2756 21.8617 43.8601 19.4869 46.3014 19.0008C48.7427 18.5147 51.116 20.1014 51.6026 22.5449Z" fill="#F12711"/>
<path d="M65.1069 70.9819C62.2938 73.795 58.4784 75.3754 54.5 75.3754C50.5217 75.3754 46.7063 73.795 43.8931 70.9819C41.08 68.1688 39.4996 64.3533 39.4996 60.375C39.4996 56.3967 41.08 52.5812 43.8931 49.7681C43.8931 49.7681 45.125 52.875 48.875 54.75C48.875 51 49.8125 45.375 54.4738 41.625C58.25 45.375 62.1688 46.8319 65.105 49.7681C66.5003 51.1594 67.6069 52.8126 68.3611 54.6329C69.1154 56.4532 69.5024 58.4046 69.5 60.375C69.5027 62.3452 69.1159 64.2966 68.362 66.1169C67.6081 67.9371 66.5018 69.5905 65.1069 70.9819V70.9819Z" stroke="black" stroke-width="4" stroke-linecap="round" stroke-linejoin="round"/>
<path d="M50.5231 66.2269C51.1764 66.8803 51.9805 67.3627 52.8644 67.6316C53.7484 67.9004 54.6849 67.9473 55.5913 67.7683C56.4978 67.5892 57.3461 67.1896 58.0614 66.6048C58.7767 66.02 59.337 65.2681 59.6926 64.4153C60.0483 63.5626 60.1885 62.6354 60.1007 61.7157C60.0129 60.7959 59.7 59.9119 59.1895 59.1419C58.679 58.3718 57.9866 57.7393 57.1736 57.3003C56.3606 56.8614 55.452 56.6294 54.5281 56.625L52.625 62.25H48.875C48.875 63.69 49.4244 65.13 50.5231 66.2269Z" stroke="black" stroke-width="3" stroke-linecap="round" stroke-linejoin="round"/>
<defs>
<linearGradient id="paint0_linear_210_2" x1="41.4736" y1="34.3646" x2="74.0907" y2="110.468" gradientUnits="userSpaceOnUse">
<stop stop-color="#F5AF19"/>
<stop offset="1" stop-color="#F12711"/>
</linearGradient>
</defs>
</svg>
