<?xml version="1.0" standalone="no"?>
<!DOCTYPE svg PUBLIC "-//W3C//DTD SVG 20010904//EN"
 "http://www.w3.org/TR/2001/REC-SVG-20010904/DTD/svg10.dtd">
<svg version="1.0" xmlns="http://www.w3.org/2000/svg"
 width="109.000000pt" height="109.000000pt" viewBox="0 0 109.000000 109.000000"
 preserveAspectRatio="xMidYMid meet">
<metadata>
Created by potrace 1.14, written by Peter Selinger 2001-2017
</metadata>
<g transform="translate(0.000000,109.000000) scale(0.100000,-0.100000)"
fill="#000000" stroke="none">
<path d="M595 1029 c-104 -21 -210 -43 -235 -48 -25 -6 -94 -20 -154 -31 -172
-33 -200 -67 -172 -208 8 -42 17 -88 20 -102 28 -158 109 -540 118 -557 25
-50 81 -69 153 -53 25 6 62 13 83 16 20 3 51 9 67 14 17 4 48 11 70 15 167 29
438 86 458 97 30 16 54 48 61 80 3 15 -19 149 -49 300 -30 150 -56 284 -59
298 -30 157 -42 185 -91 206 -45 18 -48 18 -270 -27z m315 -319 c0 -5 -5 -10
-11 -10 -5 0 -7 5 -4 10 3 6 8 10 11 10 2 0 4 -4 4 -10z m-65 -60 c-1 -11 -4
-22 -7 -25 -4 -5 -4 34 1 43 4 8 7 -1 6 -18z m45 -30 c-29 -23 -40 -25 -40 -8
0 6 3 8 6 5 4 -3 16 0 28 8 30 22 35 18 6 -5z m40 0 c-13 -8 -8 -14 10 -12 5
1 8 -11 12 -60 1 -13 7 -27 12 -31 6 -5 0 -5 -13 -2 -16 5 -21 4 -17 -4 4 -6
13 -11 21 -11 18 0 29 -32 13 -41 -13 -9 -28 -3 -28 11 0 5 8 7 18 3 14 -5 14
-3 -3 10 -10 8 -24 14 -30 13 -5 -2 -6 -1 -2 2 4 2 2 11 -5 20 -10 12 -10 16
0 19 6 3 10 9 7 13 -3 5 -12 7 -20 4 -11 -5 -12 -11 -4 -25 9 -18 -2 -59 -17
-59 -2 0 0 9 6 20 16 31 3 24 -15 -7 -15 -28 -16 -28 -10 -3 2 14 2 19 -1 12
-5 -10 -9 -10 -20 -1 -14 11 -19 2 -15 -24 1 -5 -3 -6 -9 -2 -6 4 -7 -1 -4
-12 5 -15 4 -15 -4 -3 -6 8 -8 18 -6 22 3 4 0 8 -6 8 -7 0 -9 -9 -5 -22 5 -18
4 -20 -4 -8 -6 8 -11 11 -11 5 0 -5 -4 -4 -9 4 -12 19 -38 22 -45 6 -3 -8 2
-12 12 -11 9 2 26 -3 38 -11 11 -7 23 -11 25 -8 3 2 10 -5 17 -15 15 -25 4
-25 -28 -3 -34 24 -49 25 -45 3 2 -10 -3 -21 -10 -24 -9 -3 -12 0 -8 10 3 7 0
14 -7 14 -6 0 -9 -4 -6 -8 2 -4 0 -14 -6 -22 -8 -12 -9 -12 -5 2 4 12 1 16
-14 13 -17 -3 -24 6 -20 28 1 9 -3 9 -24 1 -13 -5 -14 -9 -3 -15 11 -7 10 -11
-2 -18 -9 -6 -19 -6 -26 -1 -11 10 -24 4 -24 -11 0 -7 28 -5 78 5 20 4 22 2
17 -17 -4 -15 -3 -18 3 -9 8 11 10 11 15 -1 3 -9 -1 -18 -10 -21 -9 -4 -17 1
-20 14 -5 19 -26 22 -50 7 -8 -5 -13 -3 -13 5 0 9 -3 9 -10 -2 -8 -13 -10 -13
-10 0 0 10 -5 8 -15 -7 -9 -14 -23 -20 -35 -18 -13 3 -18 0 -14 -7 5 -7 2 -8
-6 -3 -9 6 -11 4 -5 -5 6 -9 4 -11 -6 -6 -8 4 -5 0 5 -8 11 -9 15 -16 9 -16
-7 0 -14 4 -17 9 -5 8 -34 8 -43 1 -2 -2 -12 -3 -23 -4 -12 0 -25 -8 -30 -16
-8 -13 -10 -13 -10 -1 0 11 -4 10 -16 -5 -8 -10 -12 -13 -8 -5 5 9 3 12 -5 7
-6 -4 -9 -12 -6 -17 4 -5 2 -9 -3 -9 -5 0 -13 9 -18 20 -8 19 -11 17 -36 -20
-14 -23 -29 -36 -33 -31 -3 6 -1 11 5 11 6 0 8 5 5 11 -5 6 -12 4 -22 -8 -8
-10 -12 -13 -9 -7 3 6 -1 11 -8 11 -8 0 -13 -7 -11 -16 1 -9 -5 -25 -14 -35
-9 -11 -11 -16 -4 -13 6 4 15 2 19 -4 4 -7 3 -9 -3 -6 -6 4 -13 1 -16 -7 -4
-10 0 -12 14 -9 11 3 19 0 19 -8 0 -7 3 -10 6 -7 3 4 1 15 -5 26 -8 15 -7 23
5 33 13 11 15 10 14 -2 -5 -34 -1 -42 15 -29 9 7 19 10 22 6 4 -4 1 -11 -7
-16 -8 -5 -12 -12 -8 -15 4 -4 14 5 23 19 10 14 22 26 27 26 6 0 5 -7 -2 -15
-7 -9 -10 -18 -6 -22 10 -10 55 -10 49 0 -3 5 -14 6 -25 4 -12 -4 -18 -1 -15
6 3 7 11 11 18 9 9 -2 7 4 -5 17 -11 12 -14 21 -9 21 6 0 16 -7 23 -15 7 -8
18 -15 24 -15 6 0 4 5 -4 10 -8 5 -12 10 -7 11 4 1 10 2 15 3 4 1 13 5 20 9 6
5 18 5 25 1 6 -4 4 2 -5 13 -26 29 -22 40 5 15 28 -26 55 -23 72 9 10 17 22
24 42 24 18 0 27 5 25 14 -2 9 4 12 22 9 16 -3 23 -1 19 7 -2 7 -11 12 -20 11
-9 0 -18 6 -20 14 -4 12 -3 12 5 1 7 -9 12 -10 16 -2 4 6 2 11 -5 11 -17 0 -2
13 17 16 9 1 13 -3 11 -10 -7 -17 10 -43 20 -33 4 5 1 12 -7 17 -8 6 -12 10
-8 10 3 0 14 3 22 6 12 5 15 2 10 -12 -4 -14 -3 -15 3 -6 8 10 12 10 23 -3 10
-13 9 -15 -6 -15 -11 -1 -32 -11 -48 -24 -21 -18 -25 -25 -15 -31 8 -5 11 -5
7 0 -9 9 34 45 54 45 22 0 29 12 17 26 -8 10 -6 13 10 11 12 -1 21 -5 21 -9 0
-4 5 -8 11 -8 6 0 7 5 2 13 -10 16 -11 57 -1 57 4 0 15 -12 24 -26 l17 -25 39
43 c26 29 38 37 36 24 -2 -10 4 -21 12 -23 13 -4 13 -3 0 6 -8 6 -12 11 -7 12
13 3 22 6 47 17 17 7 20 11 8 11 -9 1 -20 -4 -23 -9 -4 -7 -13 -7 -26 0 -10 6
-19 8 -19 4 0 -4 -2 -5 -5 -2 -3 3 -3 13 1 22 6 15 7 15 18 1 15 -21 46 -9 41
16 -2 12 2 19 11 19 11 0 13 -6 9 -20 -6 -18 -3 -20 20 -16 21 4 26 2 21 -11
-6 -14 -4 -14 11 -2 10 7 15 10 12 6 -4 -5 0 -33 7 -63 8 -30 12 -59 9 -64 -3
-6 -2 -10 4 -10 16 0 5 -50 -15 -71 -18 -17 -69 -31 -124 -33 -14 -1 -27 -3
-30 -6 -9 -10 -290 -61 -300 -55 -6 3 -10 2 -10 -3 0 -8 -115 -34 -167 -37
-13 -1 -26 -5 -30 -8 -3 -4 -13 -1 -21 6 -13 9 -14 9 -8 0 4 -9 1 -13 -9 -13
-11 0 -15 5 -11 16 3 8 2 12 -4 9 -6 -3 -10 -13 -10 -21 0 -12 -6 -11 -30 6
-28 20 -29 23 -14 35 13 9 14 14 4 20 -9 5 -11 4 -6 -3 4 -7 3 -12 -2 -12 -13
0 -19 18 -18 55 1 17 -3 34 -9 38 -6 5 -3 7 7 3 10 -3 20 -1 23 4 4 6 1 11 -4
11 -6 1 -15 3 -21 4 -5 1 -12 3 -15 4 -3 0 -1 9 4 19 7 13 6 23 -2 32 -8 9 -9
11 0 6 6 -3 14 0 17 6 3 7 3 -1 0 -19 -2 -18 1 -35 8 -39 6 -4 8 -3 4 4 -3 6
-2 13 4 17 6 4 8 11 5 16 -4 5 -1 9 4 9 14 0 14 -13 -1 -28 -7 -7 -8 -12 -2
-12 12 1 49 29 43 33 -2 2 -14 11 -27 19 -21 14 -21 16 -5 22 9 4 14 4 10 0
-4 -4 2 -14 13 -21 11 -8 19 -22 18 -30 -2 -9 2 -18 8 -20 19 -6 12 31 -10 57
-11 13 -14 19 -5 12 16 -12 29 -7 29 10 0 5 -4 7 -9 3 -15 -9 -25 15 -12 28 9
9 10 7 5 -7 -5 -13 -4 -17 4 -12 16 10 25 -13 12 -29 -8 -9 -8 -15 -2 -15 6 0
20 12 31 28 11 15 21 22 21 16 0 -6 -9 -19 -20 -29 -11 -10 -20 -24 -20 -32 0
-7 13 1 29 20 17 18 28 42 27 53 -4 24 2 36 15 28 5 -3 6 -11 2 -17 -4 -7 -8
-26 -9 -44 -1 -25 3 -31 18 -30 18 1 27 17 9 17 -5 0 -8 11 -8 25 0 24 1 24
14 8 13 -17 14 -17 8 3 -7 25 6 32 52 29 25 -1 31 2 30 17 -1 10 -7 18 -14 18
-7 0 -13 5 -13 10 0 7 7 7 20 0 11 -6 18 -15 15 -21 -4 -5 -1 -9 6 -9 8 0 8
-4 -1 -15 -7 -9 -10 -18 -8 -21 3 -3 16 9 29 27 18 25 19 31 6 26 -11 -4 -14
-2 -10 9 4 12 8 12 21 2 13 -11 15 -10 9 5 -4 10 -3 16 2 13 5 -3 12 1 15 10
4 12 2 15 -9 10 -8 -3 -15 -1 -15 5 0 6 8 9 18 7 9 -2 15 -11 13 -19 -10 -37
-9 -60 2 -56 7 2 11 11 9 21 -2 9 2 16 8 16 6 0 8 5 5 10 -3 6 -1 10 4 10 14
0 14 -13 1 -26 -8 -8 -6 -15 5 -24 14 -12 16 -12 15 1 -4 26 0 40 10 34 6 -3
10 -2 10 3 0 6 -7 12 -15 16 -8 3 -15 16 -14 28 1 22 1 22 9 -2 4 -14 8 -21 9
-16 1 4 10 -2 21 -15 22 -28 27 -13 5 17 -8 10 -15 23 -15 28 0 6 6 2 13 -9
10 -12 16 -14 21 -7 4 7 2 12 -3 12 -6 0 -11 5 -11 11 0 6 14 1 30 -11 17 -12
30 -17 30 -11 0 5 -4 13 -10 16 -5 3 -10 12 -10 18 0 7 4 6 10 -3 5 -8 21 -15
35 -15 28 -1 31 5 13 25 -8 8 -4 7 11 -3 23 -16 51 -13 51 5 0 5 -8 7 -19 3
-10 -3 -24 1 -31 10 -7 9 -8 15 -2 15 6 0 13 -6 15 -12 4 -10 8 -10 14 -1 6 8
13 8 26 -2 12 -8 14 -15 7 -20 -12 -7 -4 -25 11 -25 6 0 7 4 4 10 -3 5 3 17
14 27 16 13 18 20 9 30 -16 20 7 42 25 24 10 -11 9 -13 -5 -8 -20 7 -25 -8 -7
-19 6 -3 18 1 27 10 14 14 15 18 3 25 -15 10 -7 31 12 31 7 0 6 -4 -3 -10z
m-136 -8 c3 -5 -1 -9 -9 -9 -8 0 -12 4 -9 9 3 4 7 8 9 8 2 0 6 -4 9 -8z m-99
-22 c3 -6 -1 -7 -9 -4 -18 7 -21 14 -7 14 6 0 13 -4 16 -10z m45 -14 c-7 -7
-13 -7 -20 0 -6 6 -3 10 10 10 13 0 16 -4 10 -10z m70 4 c0 -5 -2 -10 -4 -10
-3 0 -8 5 -11 10 -3 6 -1 10 4 10 6 0 11 -4 11 -10z m53 -30 c-3 -3 -8 1 -10
8 -3 6 -9 10 -14 7 -5 -4 -6 1 -3 10 6 14 8 14 19 -2 8 -10 11 -20 8 -23z
m-258 12 c-3 -3 -11 0 -18 7 -9 10 -8 11 6 5 10 -3 15 -9 12 -12z m70 0 c-3
-3 -11 0 -18 7 -9 10 -8 11 6 5 10 -3 15 -9 12 -12z m-48 -27 c0 -8 -4 -12 -9
-9 -5 3 -6 10 -3 15 9 13 12 11 12 -6z m30 -7 c-3 -8 -6 -5 -6 6 -1 11 2 17 5
13 3 -3 4 -12 1 -19z m93 2 c0 -5 -4 -10 -10 -10 -5 0 -10 5 -10 10 0 6 5 10
10 10 6 0 10 -4 10 -10z m-144 -34 c0 -14 -5 -21 -9 -17 -4 4 -5 15 -1 24 9
24 12 21 10 -7z m-119 -1 c0 -8 -4 -15 -9 -15 -10 0 -11 14 -1 23 9 10 10 9
10 -8z m-121 -21 c1 -9 0 -13 -4 -10 -3 4 -7 14 -8 22 -1 9 0 13 4 10 3 -4 7
-14 8 -22z m48 14 c-3 -4 -9 -8 -15 -8 -5 0 -9 4 -9 8 0 5 7 9 15 9 8 0 12 -4
9 -9z m136 8 c0 -3 -4 -8 -10 -11 -5 -3 -10 -1 -10 4 0 6 5 11 10 11 6 0 10
-2 10 -4z m295 -33 c-5 -10 -8 -26 -9 -35 0 -10 -4 -14 -9 -9 -5 5 -4 17 2 29
6 10 7 22 4 26 -3 3 -1 6 6 6 9 0 11 -6 6 -17z m49 -8 c-7 -16 -24 -21 -24 -6
0 8 7 13 27 20 1 1 0 -6 -3 -14z m-480 -3 c3 -5 -1 -9 -9 -9 -8 0 -15 4 -15 9
0 4 4 8 9 8 6 0 12 -4 15 -8z m103 -14 c-3 -8 -6 -5 -6 6 -1 11 2 17 5 13 3
-3 4 -12 1 -19z m-166 -36 c-6 -2 -8 -9 -4 -15 3 -7 2 -9 -2 -4 -5 4 -9 16
-10 27 -1 16 1 17 13 8 9 -8 10 -14 3 -16z m113 13 c3 -8 1 -15 -4 -15 -6 0
-10 7 -10 15 0 8 2 15 4 15 2 0 6 -7 10 -15z m346 -28 c0 -5 -5 -5 -12 -1 -8
5 -9 2 -5 -9 3 -9 2 -19 -3 -22 -6 -4 -11 0 -12 7 0 7 -2 18 -3 23 -2 6 -3 16
-4 23 0 7 -6 10 -13 6 -7 -4 -8 -3 -4 4 5 9 14 7 31 -5 14 -10 25 -22 25 -26z
m-506 25 c3 -5 -1 -9 -9 -9 -8 0 -12 4 -9 9 3 4 7 8 9 8 2 0 6 -4 9 -8z m106
-12 c0 -5 -2 -10 -4 -10 -3 0 -8 5 -11 10 -3 6 -1 10 4 10 6 0 11 -4 11 -10z
m-163 -15 c0 -8 -4 -12 -9 -9 -5 3 -6 10 -3 15 9 13 12 11 12 -6z m74 -9 c5 3
9 0 9 -6 0 -15 -23 -7 -26 8 -1 7 0 8 3 2 2 -5 9 -8 14 -4z m409 -6 c0 -5 -4
-10 -10 -10 -5 0 -10 5 -10 10 0 6 5 10 10 10 6 0 10 -4 10 -10z m-70 -6 c0
-8 -19 -13 -24 -6 -3 5 1 9 9 9 8 0 15 -2 15 -3z m-78 -16 c-5 -7 -9 -26 -7
-41 3 -26 1 -28 -21 -23 -19 5 -28 1 -42 -22 -18 -31 -42 -34 -68 -8 -19 20
-37 11 -29 -14 3 -10 1 -21 -5 -25 -7 -4 -10 0 -8 10 2 11 -4 19 -15 21 -14 2
-16 0 -7 -11 17 -20 2 -39 -17 -23 -12 10 -18 9 -29 -7 -7 -10 -26 -19 -41
-21 -16 -1 -22 0 -15 3 10 4 10 8 1 19 -10 12 -15 12 -33 -3 -15 -13 -17 -14
-8 -2 6 9 9 18 6 22 -8 8 18 3 33 -6 7 -5 17 1 24 15 16 31 31 39 46 26 10 -8
19 -6 35 8 12 11 18 13 14 7 -4 -7 -3 -13 3 -13 5 0 12 8 15 18 7 21 33 25 40
6 3 -8 -1 -11 -12 -8 -9 3 -4 -2 11 -11 32 -18 36 -17 41 12 3 12 -1 20 -10
20 -10 0 -11 -4 -3 -13 6 -7 6 -14 1 -18 -11 -7 -25 21 -17 34 7 12 35 6 45
-9 6 -11 9 -11 16 0 5 8 9 21 9 29 0 8 5 15 12 15 7 0 18 6 25 13 6 6 14 12
16 12 3 0 0 -6 -6 -12z"/>
<path d="M926 572 c-3 -6 -2 -14 4 -17 8 -5 7 -12 -1 -23 -12 -16 -12 -16 5
-1 13 13 16 21 8 34 -6 11 -12 14 -16 7z"/>
<path d="M871 526 c-8 -10 -9 -16 -1 -21 5 -3 13 1 16 10 9 22 -1 29 -15 11z"/>
<path d="M782 492 c-4 -11 -6 -11 -13 0 -7 11 -10 10 -21 -1 -8 -9 -9 -11 -1
-7 6 3 15 2 18 -4 5 -8 11 -8 20 0 8 7 20 8 26 4 7 -4 9 -3 5 4 -3 5 0 12 6
15 7 3 2 4 -11 4 -13 -1 -26 -8 -29 -15z"/>
<path d="M685 480 c-4 -6 -2 -17 4 -24 9 -10 7 -15 -6 -20 -15 -6 -15 -9 -3
-16 9 -5 19 -5 27 1 7 6 16 8 21 5 5 -3 9 1 9 8 0 8 -7 12 -15 9 -10 -4 -13 1
-10 17 3 25 -16 39 -27 20z"/>
<path d="M942 410 c0 -14 2 -19 5 -12 2 6 2 18 0 25 -3 6 -5 1 -5 -13z"/>
<path d="M536 384 c-26 -33 -30 -35 -41 -20 -15 20 -21 20 -28 2 -4 -10 -1
-13 7 -10 8 3 17 0 22 -7 4 -7 3 -10 -4 -6 -12 8 -44 -2 -37 -12 2 -4 -2 -8
-10 -8 -11 0 -12 4 -4 14 8 9 8 13 1 13 -6 0 -14 -5 -17 -10 -4 -6 -12 -8 -18
-4 -7 3 -4 -1 6 -9 10 -8 24 -14 30 -13 25 6 65 25 71 35 4 5 15 8 26 6 22 -4
47 29 30 40 -6 4 -8 11 -5 16 13 21 -2 7 -29 -27z m26 -1 c-6 -2 -10 -8 -8
-12 3 -4 -1 -8 -9 -8 -11 0 -12 4 -4 14 6 7 17 13 23 12 7 0 6 -2 -2 -6z"/>
<path d="M901 396 c-9 -10 -9 -16 -1 -21 6 -4 10 -3 9 2 -3 20 2 27 11 13 6
-9 10 -10 10 -3 0 19 -17 24 -29 9z"/>
<path d="M425 370 c-3 -5 3 -10 15 -10 12 0 18 5 15 10 -3 6 -10 10 -15 10 -5
0 -12 -4 -15 -10z"/>
<path d="M833 373 c4 -3 0 -11 -8 -17 -11 -8 -12 -15 -4 -26 9 -13 10 -13 6 2
-3 9 1 19 9 22 17 6 19 26 2 26 -6 0 -8 -3 -5 -7z"/>
<path d="M923 363 c-10 -10 -13 -14 -6 -10 6 5 16 6 21 3 5 -3 9 1 9 9 0 19
-1 19 -24 -2z"/>
<path d="M864 355 c-19 -15 -19 -15 1 -8 l20 6 -20 -24 c-11 -13 -13 -18 -4
-11 9 6 18 10 20 7 3 -2 5 7 5 20 0 14 0 25 -1 25 -1 0 -10 -7 -21 -15z"/>
<path d="M750 353 c0 -6 8 -17 18 -24 16 -13 16 -13 2 6 -8 11 -16 22 -17 24
-2 2 -3 0 -3 -6z"/>
<path d="M786 314 c-5 -14 -4 -15 9 -4 17 14 19 20 6 20 -5 0 -12 -7 -15 -16z"/>
<path d="M346 312 c-2 -4 -1 -14 3 -21 6 -9 11 -10 15 -2 4 6 1 11 -6 11 -9 0
-9 3 2 10 9 6 10 10 3 10 -6 0 -14 -4 -17 -8z"/>
<path d="M706 295 c-11 -8 -15 -15 -9 -15 6 0 16 7 23 15 16 19 11 19 -14 0z"/>
<path d="M748 303 c6 -2 9 -10 6 -15 -4 -7 -2 -8 5 -4 13 9 5 26 -12 25 -9 0
-8 -2 1 -6z"/>
<path d="M804 288 c-12 -14 -13 -18 -3 -10 9 6 18 10 21 7 2 -3 5 2 5 10 0 19
0 19 -23 -7z"/>
<path d="M655 271 c-4 -7 1 -8 12 -4 15 6 16 4 6 -8 -10 -13 -10 -16 1 -16 16
0 15 29 -1 34 -6 2 -14 -1 -18 -6z"/>
<path d="M245 260 c-3 -6 1 -7 9 -4 18 7 21 14 7 14 -6 0 -13 -4 -16 -10z"/>
<path d="M590 259 c0 -5 -4 -7 -10 -4 -6 4 -7 -1 -3 -11 4 -11 8 -13 11 -6 2
7 8 10 13 7 5 -4 6 1 3 9 -7 18 -14 21 -14 5z"/>
<path d="M829 253 c-13 -16 -12 -17 4 -4 16 13 21 21 13 21 -2 0 -10 -8 -17
-17z"/>
<path d="M532 243 c3 -17 38 -28 38 -11 0 6 -7 7 -16 4 -12 -4 -15 -2 -10 9 3
8 1 15 -5 15 -6 0 -9 -7 -7 -17z"/>
<path d="M747 249 c7 -7 15 -10 18 -7 3 3 -2 9 -12 12 -14 6 -15 5 -6 -5z"/>
<path d="M630 236 c0 -2 7 -7 16 -10 8 -3 12 -2 9 4 -6 10 -25 14 -25 6z"/>
<path d="M710 229 c0 -5 5 -7 10 -4 6 3 10 8 10 11 0 2 -4 4 -10 4 -5 0 -10
-5 -10 -11z"/>
<path d="M610 226 c0 -2 8 -10 18 -17 15 -13 16 -12 3 4 -13 16 -21 21 -21 13z"/>
<path d="M505 210 c-3 -6 1 -7 9 -4 18 7 21 14 7 14 -6 0 -13 -4 -16 -10z"/>
<path d="M576 203 c-6 -14 -5 -15 5 -6 7 7 10 15 7 18 -3 3 -9 -2 -12 -12z"/>
<path d="M470 206 c0 -2 7 -9 15 -16 13 -11 14 -10 9 4 -5 14 -24 23 -24 12z"/>
<path d="M415 190 c-3 -5 -3 -10 2 -11 4 0 -1 -4 -11 -8 -19 -7 -19 -8 1 -13
17 -5 21 -2 18 13 -3 14 2 19 17 19 18 0 19 -2 7 -17 -13 -16 -12 -17 3 -4 10
7 15 17 12 22 -7 12 -41 11 -49 -1z"/>
<path d="M650 189 c0 -5 5 -7 10 -4 6 3 10 8 10 11 0 2 -4 4 -10 4 -5 0 -10
-5 -10 -11z"/>
<path d="M596 172 c-3 -5 1 -9 9 -9 8 0 12 4 9 9 -3 4 -7 8 -9 8 -2 0 -6 -4
-9 -8z"/>
<path d="M466 155 c-11 -8 -15 -15 -9 -15 6 0 16 7 23 15 16 19 11 19 -14 0z"/>
<path d="M265 130 c-4 -11 -10 -18 -15 -15 -5 3 -11 1 -14 -4 -4 -5 2 -8 11
-7 9 2 19 8 21 14 2 7 8 10 13 7 5 -4 6 1 3 9 -8 21 -11 20 -19 -4z"/>
<path d="M315 130 c3 -5 8 -10 11 -10 2 0 4 5 4 10 0 6 -5 10 -11 10 -5 0 -7
-4 -4 -10z"/>
<path d="M547 319 c7 -7 15 -10 18 -7 3 3 -2 9 -12 12 -14 6 -15 5 -6 -5z"/>
<path d="M325 246 c-32 -37 -35 -43 -20 -43 20 0 46 30 37 44 -5 8 -10 8 -17
-1z m15 -10 c0 -2 -8 -10 -17 -17 -16 -13 -17 -12 -4 4 13 16 21 21 21 13z"/>
</g>
</svg>
