<svg version="1.1" xmlns="http://www.w3.org/2000/svg" viewBox="0 0 161.04916709079407 22.04298930854543" width="161.04916709079407" height="22.04298930854543">
  <!-- svg-source:excalidraw -->
  
  <defs>
    <style>
      @font-face {
        font-family: "Virgil";
        src: url("https://excalidraw.com/Virgil.woff2");
      }
      @font-face {
        font-family: "Cascadia";
        src: url("https://excalidraw.com/Cascadia.woff2");
      }
    </style>
  </defs>
  <rect x="0" y="0" width="161.04916709079407" height="22.04298930854543" fill="#ffffff"></rect><g stroke-linecap="round"><g transform="translate(10.75489681973113 11.182109833667027) rotate(0 69.7696867256659 -0.1606151793943127)"><path d="M0.46 0.25 C23.73 0.51, 116.79 0.89, 140.29 0.86 M-0.75 -0.66 C22.26 -0.73, 115.48 -1.4, 139.11 -1.11" stroke="#000000" stroke-width="1" fill="none"></path></g><g transform="translate(10.75489681973113 11.182109833667027) rotate(0 69.7696867256659 -0.1606151793943127)"><path d="M111.33 8.38 C121.46 6.59, 130.14 1.94, 139.92 -0.89 M111.35 9.31 C119.83 5.48, 130.23 1.93, 138.21 -2.1" stroke="#000000" stroke-width="1" fill="none"></path></g><g transform="translate(10.75489681973113 11.182109833667027) rotate(0 69.7696867256659 -0.1606151793943127)"><path d="M111.35 -12.14 C121.36 -6.65, 130.03 -4.02, 139.92 -0.89 M111.38 -11.21 C119.98 -8.26, 130.38 -5.03, 138.21 -2.1" stroke="#000000" stroke-width="1" fill="none"></path></g></g></svg>