<svg version="1.1" xmlns="http://www.w3.org/2000/svg" viewBox="0 0 780.9453125 550.06640625" width="780.9453125" height="550.06640625">
  <!-- svg-source:excalidraw -->
  
  <defs>
    <style>
      @font-face {
        font-family: "Virgil";
        src: url("https://excalidraw.com/Virgil.woff2");
      }
      @font-face {
        font-family: "Cascadia";
        src: url("https://excalidraw.com/Cascadia.woff2");
      }
    </style>
  </defs>
  <rect x="0" y="0" width="780.9453125" height="550.06640625" fill="#ffffff"></rect><g stroke-linecap="round" transform="translate(10 10) rotate(0 380.47265625 265.033203125)"><path d="M-0.35 -0.52 C187.07 -0.02, 374.31 0.52, 760.24 0.45 M-0.08 0.13 C210.07 -2.73, 420.41 -2.51, 760.91 -0.31 M761.37 -0.05 C760.18 195.41, 759.27 391.61, 760.27 529.68 M761.17 -0.25 C759.25 112.1, 759.47 223.77, 760.56 529.78 M760.32 529.4 C482.65 530.22, 204.78 529.17, -0.13 530.56 M761.05 530.32 C507.41 529.68, 254.01 529.49, -0.37 529.87 M0.21 529.84 C0.22 363.39, 0.13 196.11, 0.42 0.13 M-0.16 530.03 C-0.87 379.95, -0.94 229.29, 0.03 -0.02" stroke="#000000" stroke-width="1" fill="none"></path></g><g transform="translate(151.8125 33.3359375) rotate(0 22.5 12.5)"><text x="0" y="18" font-family="Virgil, Segoe UI Emoji" font-size="20px" fill="#000000" text-anchor="start" style="white-space: pre;" direction="ltr">Logo</text></g><g stroke-linecap="round" transform="translate(154.78515625 91.625) rotate(0 232.94921875 104.255859375)"><path d="M-0.15 0.82 C183.31 1.38, 364.63 1.73, 466.36 0.2 M0.28 -0.16 C160.16 1.25, 319.25 1.36, 466.15 0.15 M466.64 -0.19 C465.63 63.89, 463.57 129.58, 465.87 208.02 M466.1 -0.15 C466.01 46.61, 465.84 94.18, 466.06 208.75 M465.79 207.96 C292.93 210.44, 121.95 209.38, -0.41 208.12 M466.23 208.06 C307.31 210.29, 149.02 210.28, -0.26 208.57 M-0.29 209.25 C2.18 152.72, 1.49 93.76, -0.93 -0.49 M-0.5 208.87 C1.82 141.16, 1.05 74.61, 0.76 0.24" stroke="#000000" stroke-width="1" fill="none"></path></g><g transform="translate(191.2890625 123.98828125) rotate(0 82.5 45)"><text x="0" y="32" font-family="Virgil, Segoe UI Emoji" font-size="36px" fill="#000000" text-anchor="start" style="white-space: pre;" direction="ltr">Månedens</text><text x="0" y="77" font-family="Virgil, Segoe UI Emoji" font-size="36px" fill="#000000" text-anchor="start" style="white-space: pre;" direction="ltr">Deals</text></g><g transform="translate(315.30859375 316.9453125) rotate(0 64 12.5)"><text x="0" y="18" font-family="Virgil, Segoe UI Emoji" font-size="20px" fill="#000000" text-anchor="start" style="white-space: pre;" direction="ltr">Gratis frakt</text></g><g transform="translate(303.0390625 342.640625) rotate(0 80 10)"><text x="0" y="14" font-family="Virgil, Segoe UI Emoji" font-size="16px" fill="#000000" text-anchor="start" style="white-space: pre;" direction="ltr">Ved kjøp over 400kr</text></g><g transform="translate(516.8549175261105 36.717973042621225) rotate(0 35.789710725619216 8.686822991655134)"><text x="0" y="12.37364598331028" font-family="Virgil, Segoe UI Emoji" font-size="13.898916786648245px" fill="#000000" text-anchor="start" style="white-space: pre;" direction="ltr">Handlevogn</text></g><g stroke-linecap="round"><g transform="translate(595.163163755466 42.641541321072566) rotate(0 11.242252191926582 4.218698426114656)" fill-rule="evenodd"><path d="M1.44 -0.21 L6.13 10.9 L16.4 11.92 L20.34 1.25 L0.21 0.51" stroke="none" stroke-width="0" fill="#868e96" fill-rule="evenodd"></path><path d="M0.37 -1 C1.38 3.47, 3.16 7.03, 5.94 9.47 M0.03 0.3 C1.57 3.24, 4.33 6.91, 4.94 9.61 M6.2 9.04 C6.89 10.42, 9.01 9.24, 16.37 9.21 M5.4 9.81 C8 10.49, 11.09 9.98, 15.85 9.7 M15.52 10.2 C17.59 8.93, 19.8 5.84, 22.69 -0.72 M16.4 9.69 C18.55 6.08, 20.29 2.64, 22.53 0.56 M24.14 2.21 C14.15 0.13, 5.87 1.13, -1.65 -1.77 M23 0.94 C15.68 0.91, 8.28 -0.97, -0.17 -0.26 M0 0 C0 0, 0 0, 0 0 M0 0 C0 0, 0 0, 0 0" stroke="#000000" stroke-width="1" fill="none"></path></g></g><g stroke-linecap="round"><g transform="translate(609.8882631955335 43.100382879908494) rotate(0 -2.0531240393895587 -4.2741070570686475)"><path d="M-0.78 -0.28 C-1.12 -2.7, -2.17 -4.35, -4.34 -7.37 M0.23 -0.3 C-1.85 -2.7, -3.33 -6.41, -4.23 -8.27" stroke="#000000" stroke-width="1" fill="none"></path></g></g><g stroke-linecap="round"><g transform="translate(604.710152556559 42.95231800841461) rotate(63.943248364688976 -2.303037756955291 -3.8031935445623617)"><path d="M-0.28 0.13 C-1.51 -2.23, -1.94 -5.47, -3.43 -7.05 M-0.3 -0.24 C-1.03 -3.02, -3.07 -6.03, -4.33 -7.74" stroke="#000000" stroke-width="1" fill="none"></path></g></g><g stroke-linecap="round" transform="translate(603.710595280847 46.69624018148559) rotate(0 1.601493806342205 1.6014938063421056)"><path d="M2.1 -0.1 C2.47 -0.06, 2.88 1.06, 3.23 1.27 C3.57 1.48, 4.2 1.03, 4.15 1.16 C4.1 1.29, 3.18 1.86, 2.92 2.05 C2.67 2.23, 3.1 2.03, 2.64 2.27 C2.19 2.5, 0.51 3.49, 0.21 3.44 C-0.09 3.38, 0.78 2.15, 0.86 1.92 C0.95 1.69, 0.64 2.17, 0.72 2.06 C0.8 1.95, 1.04 1.76, 1.32 1.26 C1.6 0.76, 2.37 -0.69, 2.4 -0.94 C2.44 -1.19, 1.81 -0.41, 1.52 -0.23 M2.73 0.59 C2.73 0.21, 2.08 -0.67, 2.19 -0.55 C2.3 -0.43, 3.46 0.59, 3.39 1.31 C3.33 2.03, 1.96 3.45, 1.81 3.78 C1.65 4.1, 2.64 3.5, 2.48 3.29 C2.31 3.07, 1.35 2.62, 0.82 2.48 C0.29 2.33, -0.58 2.71, -0.71 2.41 C-0.84 2.11, -0.18 0.85, 0.03 0.67 C0.24 0.49, 0.28 1.3, 0.56 1.31 C0.84 1.32, 1.36 0.93, 1.69 0.74 C2.02 0.55, 2.3 0.49, 2.53 0.15" stroke="none" stroke-width="0" fill="white"></path><path d="M0.95 0.6 C1.37 0.53, 3.04 0.73, 3.41 0.91 C3.79 1.08, 3.35 1.52, 3.18 1.65 C3.01 1.78, 2.38 1.51, 2.4 1.68 C2.41 1.85, 3.54 2.51, 3.28 2.65 C3.01 2.79, 1.47 2.47, 0.83 2.51 C0.19 2.55, -0.31 2.91, -0.54 2.9 C-0.77 2.89, -0.56 2.95, -0.54 2.46 C-0.52 1.96, -0.83 0.48, -0.42 -0.06 C-0.01 -0.61, 1.67 -0.83, 1.91 -0.79 C2.15 -0.76, 1.21 0.06, 1.01 0.14 M1.9 0.21 C2.42 0.37, 4.13 1.62, 4.28 1.75 C4.42 1.88, 3.3 1, 2.76 1 C2.21 1, 1.18 1.54, 1.01 1.76 C0.84 1.97, 2 2.15, 1.74 2.29 C1.48 2.44, -0.27 2.56, -0.56 2.64 C-0.84 2.71, -0.31 3.1, 0.04 2.75 C0.39 2.4, 1.24 1.21, 1.53 0.55 C1.82 -0.12, 1.46 -1.12, 1.79 -1.22 C2.12 -1.31, 3.22 -0.33, 3.51 -0.03 C3.81 0.27, 3.99 0.51, 3.55 0.57" stroke="#000000" stroke-width="1" fill="none"></path></g><g transform="translate(415.890625 35.70719209101617) rotate(0 26.755414814297865 8.686822991655134)"><text x="0" y="12.37364598331028" font-family="Virgil, Segoe UI Emoji" font-size="13.898916786648224px" fill="#000000" text-anchor="start" style="white-space: pre;" direction="ltr">Logg inn</text></g><g stroke-linecap="round"><g transform="translate(478.3820292772193 88.44162518168935) rotate(0 7.711099459847674 -41.54577914890989)" fill-rule="evenodd"><path d="M-1.73 -36.25 L0.29 -42.29 L4.09 -47.71 L7.24 -49.22 L12.76 -45.12 L16.12 -40.67 L17.19 -35.17 L1.86 -35.83" stroke="none" stroke-width="0" fill="#868e96" fill-rule="evenodd"></path><path d="M-1.12 -33.93 C-0.57 -35.53, 1.04 -41.41, 2.52 -43.65 C4 -45.89, 6.1 -47.14, 7.79 -47.36 C9.47 -47.58, 11.28 -46.97, 12.63 -44.99 C13.98 -43, 18.14 -37.28, 15.88 -35.45 C13.63 -33.61, 1.89 -34.32, -0.91 -34 M0.49 -34.71 C1.02 -36.14, 0.86 -39.68, 1.97 -42.09 C3.08 -44.5, 5.4 -48.84, 7.16 -49.16 C8.91 -49.49, 11.29 -46.39, 12.52 -44.04 C13.75 -41.69, 16.6 -36.62, 14.52 -35.08 C12.44 -33.55, 2.57 -34.93, 0.02 -34.81" stroke="#000000" stroke-width="1" fill="none"></path></g></g><g stroke-linecap="round" transform="translate(481.5999879995725 33.1155663468125) rotate(0 4.0140273651054486 3.5122739444673243)"><path d="M5 0.69 C5.91 0.86, 7.24 0.91, 7.77 1.59 C8.29 2.28, 8.23 4.13, 8.16 4.82 C8.09 5.5, 7.91 5.36, 7.36 5.7 C6.82 6.04, 5.94 6.83, 4.9 6.87 C3.85 6.9, 2.03 6.25, 1.08 5.93 C0.13 5.6, -0.57 5.67, -0.8 4.9 C-1.03 4.13, -0.86 1.97, -0.28 1.31 C0.31 0.65, 1.85 1.04, 2.72 0.94 C3.6 0.84, 4.38 0.9, 4.98 0.71 C5.57 0.52, 6.27 -0.21, 6.29 -0.2 M6.53 0.84 C7.4 1.42, 8.63 2.52, 8.69 2.95 C8.74 3.38, 6.97 3.14, 6.87 3.43 C6.77 3.72, 8.52 4.23, 8.11 4.68 C7.7 5.14, 5.54 5.95, 4.41 6.16 C3.28 6.38, 1.84 6.14, 1.32 5.98 C0.81 5.82, 1.7 5.73, 1.33 5.22 C0.96 4.71, -0.86 3.83, -0.92 2.93 C-0.98 2.02, -0.19 0.49, 0.98 -0.21 C2.15 -0.91, 5.22 -1.53, 6.12 -1.28 C7.02 -1.02, 6.38 1.05, 6.37 1.3" stroke="none" stroke-width="0" fill="#868e96"></path><path d="M3.52 -0.24 C4.33 -0.43, 6.2 0.22, 6.81 0.81 C7.43 1.41, 7.24 2.44, 7.22 3.32 C7.19 4.19, 7.13 5.64, 6.67 6.07 C6.21 6.51, 5.27 5.69, 4.46 5.92 C3.66 6.16, 2.53 7.68, 1.85 7.49 C1.16 7.3, 0.67 5.63, 0.35 4.79 C0.03 3.95, -0.22 3.14, -0.07 2.43 C0.07 1.73, 0.34 1.02, 1.21 0.57 C2.09 0.12, 4.28 -0.29, 5.19 -0.28 C6.09 -0.28, 6.54 0.6, 6.66 0.6 M4.48 0.51 C5.57 0.31, 7.42 -0.39, 7.97 0.36 C8.52 1.12, 8.21 3.99, 7.79 5.04 C7.37 6.1, 6.09 6.2, 5.44 6.7 C4.79 7.19, 4.77 8.16, 3.9 8 C3.03 7.85, 1.06 6.38, 0.23 5.76 C-0.6 5.14, -1.23 5.01, -1.07 4.27 C-0.91 3.52, 0.44 1.87, 1.2 1.27 C1.96 0.68, 2.79 0.71, 3.5 0.7 C4.22 0.7, 5.4 1.57, 5.48 1.25 C5.55 0.93, 4.24 -0.95, 3.96 -1.21" stroke="#000000" stroke-width="1" fill="none"></path></g><g stroke-linecap="round" transform="translate(158.93359375 402.50390625) rotate(0 67.609375 62.642578125)"><path d="M-1.05 1.71 C42.51 0.58, 86.31 1.02, 136.95 1.1 M-0.64 -0.04 C48.67 -0.26, 96.79 -1.1, 134.77 0.52 M136.04 0.89 C134.04 33.22, 137.24 64.95, 134.77 125.46 M135.32 0.04 C136.71 45.83, 136.57 89.65, 135.56 126.08 M134.78 126.97 C97.38 126.22, 59.99 126.45, 0.73 125.19 M135.82 124.74 C88.64 126.03, 40.73 125.42, 0.61 125.5 M-1.75 123.65 C0.79 81.65, 0.76 33.8, 1.31 -1.59 M-0.23 125.71 C0.9 81.65, 1.17 36.27, 0.94 0.95" stroke="#000000" stroke-width="1" fill="none"></path></g><g stroke-linecap="round" transform="translate(233.65234375 491.98828125) rotate(0 27.5 15)"><path d="M-0.72 -1.34 C14.11 -2.06, 25.78 -1.39, 56.95 -1.69 M0.67 -0.65 C11.81 0.45, 24.91 0.58, 54.79 -0.73 M55.52 1.56 C54 9.85, 55.9 18.4, 54.26 30.4 M54.52 0.6 C54.27 10.9, 55.22 22.22, 55.82 29 M55.39 28.87 C44.77 32.19, 31.7 32.02, -0.32 31.48 M54.63 29.54 C41.96 29.26, 29.74 30.14, -0.91 30.21 M1.2 31.14 C0.8 19.93, -0.81 7.76, 1.43 0.92 M-0.45 30.99 C0.6 19.12, 0.14 8.41, -0.66 -0.83" stroke="#000000" stroke-width="1" fill="none"></path></g><g transform="translate(238.65234375 496.98828125) rotate(0 22.5 10)"><text x="22.5" y="14" font-family="Virgil, Segoe UI Emoji" font-size="16px" fill="#000000" text-anchor="middle" style="white-space: pre;" direction="ltr">Vis</text></g><g transform="translate(167.08984375 461.4765625) rotate(0 61 10)"><text x="0" y="14" font-family="Virgil, Segoe UI Emoji" font-size="16px" fill="#000000" text-anchor="start" style="white-space: pre;" direction="ltr">Broculus Quest</text></g><g stroke-linecap="round"><g transform="translate(234.37438897929428 409.12869150488655) rotate(314.65317476242416 -9.531010329231549 20.616346214984844)" fill-rule="evenodd"><path d="M-9.85 -0.81 L-19.44 13.99 L-18.81 41.87 L-1.2 40.28 L0.94 13.36 L-9.27 0.21" stroke="none" stroke-width="0" fill="#868e96" fill-rule="evenodd"></path><path d="M-9.09 -0.45 C-14.66 3.12, -16.52 9.93, -21.36 13.11 M-9.48 0.57 C-13.44 4.17, -16.84 8.58, -19.78 13.72 M-20.1 13.96 C-19.53 24.33, -17.98 36.64, -19.32 41.81 M-20.37 15.31 C-21.28 25.21, -20.83 34.57, -18.65 40.74 M-21.38 40.65 C-14.99 39.14, -12.83 39.48, 1.93 40.42 M-19.05 40.97 C-13.82 42.05, -8.15 40.59, 0.25 40.65 M2.32 38.44 C0.45 32.6, -0.54 29.38, -1.16 14.3 M0.26 40.25 C-0.12 32.02, -0.21 23, -0.02 13.88 M-1.37 15.77 C-4.4 8.77, -6.92 1.69, -10.92 0.89 M0.05 15.01 C-1.99 11.27, -4.95 6.5, -9.75 -0.57 M-9.78 0 C-9.78 0, -9.78 0, -9.78 0 M-9.78 0 C-9.78 0, -9.78 0, -9.78 0" stroke="#000000" stroke-width="1" fill="none"></path></g></g><g stroke-linecap="round" transform="translate(219.0726839480658 425.5514203248407) rotate(0 2.465204970252671 1.9721639762021255)"><path d="M3.15 0.79 C3.52 1.03, 3.68 1.18, 3.92 1.61 C4.16 2.04, 4.76 3.04, 4.59 3.38 C4.43 3.71, 3.51 3.61, 2.93 3.62 C2.36 3.64, 1.49 3.63, 1.14 3.47 C0.78 3.31, 1.02 2.85, 0.82 2.66 C0.61 2.47, 0.12 2.5, -0.08 2.33 C-0.28 2.16, -0.64 1.98, -0.38 1.63 C-0.12 1.27, 0.92 0.34, 1.48 0.19 C2.04 0.04, 2.68 0.7, 2.98 0.72 C3.29 0.75, 3.19 0.45, 3.29 0.32 M2.33 1.34 C2.79 1.65, 3.66 1.23, 4.17 1.25 C4.69 1.26, 5.65 0.89, 5.43 1.41 C5.21 1.93, 3.5 4.13, 2.84 4.39 C2.18 4.65, 1.84 3.15, 1.49 2.96 C1.13 2.78, 0.82 3.31, 0.73 3.26 C0.63 3.21, 0.84 3.11, 0.93 2.67 C1.03 2.22, 1.32 1.03, 1.31 0.6 C1.3 0.17, 0.64 0.13, 0.85 0.09 C1.07 0.06, 1.93 0.29, 2.6 0.4 C3.26 0.51, 4.58 0.5, 4.86 0.74" stroke="none" stroke-width="0" fill="white"></path><path d="M1.8 -0.25 C2.27 -0.43, 1.9 0.14, 2.45 0.23 C3 0.32, 4.63 -0.15, 5.1 0.29 C5.56 0.73, 5.46 2.38, 5.24 2.85 C5.02 3.32, 4.27 2.99, 3.76 3.09 C3.26 3.19, 2.52 3.52, 2.21 3.46 C1.9 3.4, 2.13 2.83, 1.9 2.72 C1.67 2.6, 1.06 3, 0.83 2.76 C0.61 2.53, 0.44 1.73, 0.56 1.33 C0.68 0.93, 1.33 0.44, 1.56 0.38 C1.8 0.32, 1.78 0.95, 1.98 0.96 M3.18 0.39 C3.72 0.45, 5 -0.62, 5.5 -0.56 C5.99 -0.49, 6.26 -0.05, 6.15 0.8 C6.03 1.66, 5.5 4.31, 4.82 4.6 C4.13 4.88, 2.81 2.62, 2.07 2.52 C1.32 2.42, 0.89 4.05, 0.37 4 C-0.16 3.94, -1.09 2.88, -1.09 2.21 C-1.09 1.54, 0.23 0.44, 0.38 -0.04 C0.52 -0.51, -0.75 -0.71, -0.22 -0.67 C0.32 -0.62, 3.13 0.37, 3.59 0.25 C4.05 0.13, 2.73 -1.55, 2.54 -1.41" stroke="#000000" stroke-width="1" fill="none"></path></g><g stroke-linecap="round" transform="translate(321.140625 400.759765625) rotate(0 67.609375 62.642578125)"><path d="M1.43 0.88 C49.49 -0.1, 101.55 0.84, 135.85 -1.47 M0.96 -0.15 C53.44 -0.23, 104.42 0.57, 135.39 0.95 M137.09 -0.17 C136.25 33.62, 135.85 62.66, 136.26 126.01 M134.23 0.11 C135.96 37.07, 135.88 73.58, 135.03 124.46 M135.49 124.96 C92.92 125.58, 53.64 123.29, 1.66 124.4 M134.55 125.29 C95.66 124.51, 55.97 124.68, -0.42 125.99 M1.45 126.24 C-0.02 97.93, 0.12 72.1, 0.25 -1.93 M-0.04 125.9 C-2.1 86.75, -1.28 49.55, -0.82 0.6" stroke="#000000" stroke-width="1" fill="none"></path></g><g stroke-linecap="round" transform="translate(395.859375 490.244140625) rotate(0 27.5 15)"><path d="M0.88 -0.55 C14.91 1.09, 31.33 0.24, 53.53 1.79 M-0.15 0.77 C15.36 -1.44, 31.65 -0.36, 55.95 -0.44 M54.83 0.03 C56.82 11.02, 53.86 23.82, 55.72 29.92 M55.11 0.04 C55.24 10.64, 54.66 21.15, 54.18 30.08 M54.68 29.39 C43.28 31.89, 28.35 31.73, -0.88 29.86 M55.01 30.04 C37.13 29.58, 19.27 29.21, 0.71 29.19 M0.96 30.52 C0.23 20.37, 1.84 9.69, -1.93 0 M0.62 29.1 C-1.16 18.04, -0.78 5.43, 0.6 -0.37" stroke="#000000" stroke-width="1" fill="none"></path></g><g transform="translate(400.859375 495.244140625) rotate(0 22.5 10)"><text x="22.5" y="14" font-family="Virgil, Segoe UI Emoji" font-size="16px" fill="#000000" text-anchor="middle" style="white-space: pre;" direction="ltr">Vis</text></g><g transform="translate(330.25 464.388671875) rotate(0 37 10)"><text x="0" y="14" font-family="Virgil, Segoe UI Emoji" font-size="16px" fill="#000000" text-anchor="start" style="white-space: pre;" direction="ltr">Holobriller</text></g><g stroke-linecap="round" transform="translate(485.6640625 400.603515625) rotate(0 67.609375 62.642578125)"><path d="M-1.17 -0.47 C50.8 -0.11, 106.09 -1.82, 135.65 0.51 M0.83 -0.7 C31.14 -1.02, 61 -0.14, 136.08 -0.26 M134.04 -0.04 C133.89 35.35, 133.02 70.79, 135.01 126.59 M136.02 0.06 C135.6 26.39, 137 53.78, 134.9 124.61 M135.65 126.81 C94.03 124.14, 50.82 123.98, -0.57 125.91 M134.94 124.48 C99.95 125.34, 62.82 125.56, 0.85 125.44 M0.67 124.36 C1.51 78.87, -1.82 35.87, -1.72 0.15 M-0.7 126.16 C0.12 85.01, 0.31 46.24, -0.73 0.87" stroke="#000000" stroke-width="1" fill="none"></path></g><g stroke-linecap="round" transform="translate(560.3828125 490.087890625) rotate(0 27.5 15)"><path d="M-0.47 -1.73 C15.37 1.35, 29.3 0.75, 55.51 -1.42 M-0.7 0.15 C13.94 -1.44, 29.17 0.41, 54.74 -0.15 M54.96 -0.21 C54.54 5.24, 54.29 12.43, 56.31 28.27 M55.06 -0.79 C54.77 12.41, 55.38 23.29, 54.32 30.06 M56.52 30.24 C38.54 28.57, 21.92 29.55, 0.62 29.32 M54.2 30.69 C35.91 29.36, 17.37 30.7, 0.16 30.61 M-0.92 31.74 C-1.42 18.86, 0.75 9.19, 0.15 0.27 M0.88 29.11 C-1.14 22.72, -0.62 16.11, 0.87 -0.1" stroke="#000000" stroke-width="1" fill="none"></path></g><g transform="translate(565.3828125 495.087890625) rotate(0 22.5 10)"><text x="22.5" y="14" font-family="Virgil, Segoe UI Emoji" font-size="16px" fill="#000000" text-anchor="middle" style="white-space: pre;" direction="ltr">Vis</text></g><g transform="translate(495.46875 460.705078125) rotate(0 43 10)"><text x="0" y="14" font-family="Virgil, Segoe UI Emoji" font-size="16px" fill="#000000" text-anchor="start" style="white-space: pre;" direction="ltr">Pluggindeks</text></g><g stroke-linecap="round"><g transform="translate(375.30518677830196 423.9881103240856) rotate(0 13.635280912947223 16.610939613110304)" fill-rule="evenodd"><path d="M1.54 1.13 L13.48 32.54 L30.01 -0.79 L-0.23 1.65" stroke="none" stroke-width="0" fill="#868e96" fill-rule="evenodd"></path><path d="M-1.87 0.73 C3.24 7.3, 7.58 12.33, 14.94 34.24 M-0.43 -0.35 C5.97 11.86, 9.93 25.13, 13.94 31.84 M13.95 30.91 C19.13 24.87, 21.84 15.92, 27.96 -1.02 M13.2 33.13 C19.46 19.71, 24.42 8.1, 27.63 -0.42 M29.14 1.5 C20.7 0.76, 11.59 -0.42, 0.81 -0.98 M27.48 -0.16 C22.31 -0.57, 13.54 -0.2, 0.34 -0.55 M0 -0.12 C0 -0.12, 0 -0.12, 0 -0.12 M0 -0.12 C0 -0.12, 0 -0.12, 0 -0.12" stroke="#000000" stroke-width="1" fill="none"></path></g></g><g stroke-linecap="round" transform="translate(375.10295810932894 410.85713952947253) rotate(0 13.012557778877067 13.01255777887701)"><path d="M10.7 -0.16 C13.57 -0.68, 17.75 1.26, 20.09 2.53 C22.42 3.81, 23.97 5.21, 24.7 7.51 C25.44 9.8, 25.41 13.61, 24.48 16.29 C23.55 18.96, 21.29 21.97, 19.12 23.57 C16.96 25.18, 14.07 26.18, 11.47 25.93 C8.86 25.68, 5.45 24.06, 3.48 22.07 C1.51 20.09, -0.2 16.87, -0.38 14.01 C-0.56 11.14, -0.03 7.27, 2.38 4.87 C4.79 2.48, 11.82 0.35, 14.09 -0.39 C16.36 -1.12, 15.96 0.27, 15.97 0.46 M17.82 2.3 C20.12 3.07, 22.6 4.43, 24.14 6.74 C25.68 9.04, 27.73 13.22, 27.07 16.12 C26.4 19.02, 22.71 22.48, 20.14 24.12 C17.57 25.76, 14.39 26.33, 11.66 25.97 C8.93 25.62, 5.59 23.98, 3.76 22 C1.93 20.02, 0.96 16.62, 0.69 14.1 C0.41 11.58, 0.67 8.92, 2.12 6.87 C3.57 4.83, 6.74 2.92, 9.38 1.81 C12.03 0.7, 16.79 0.31, 17.98 0.21 C19.17 0.1, 16.51 0.62, 16.53 1.19" stroke="none" stroke-width="0" fill="#868e96"></path><path d="M13.21 0.96 C15.96 0.98, 20.77 2.58, 22.94 4.51 C25.11 6.45, 26.16 9.97, 26.22 12.57 C26.28 15.18, 24.77 18.05, 23.3 20.16 C21.84 22.28, 20.04 24.38, 17.42 25.27 C14.8 26.15, 10.11 26.71, 7.56 25.47 C5 24.22, 3.34 20.48, 2.1 17.81 C0.87 15.13, -0.39 11.9, 0.16 9.41 C0.71 6.91, 3 4.22, 5.41 2.84 C7.83 1.46, 12.64 1.43, 14.65 1.13 C16.67 0.82, 17.3 0.98, 17.51 1.03 M10.51 0.34 C13 -0.03, 17.83 0.97, 20.21 2.2 C22.59 3.43, 23.76 5.34, 24.79 7.73 C25.83 10.12, 27.32 13.87, 26.42 16.54 C25.52 19.21, 21.74 22.04, 19.38 23.75 C17.02 25.46, 14.86 26.96, 12.26 26.79 C9.66 26.63, 5.82 24.95, 3.78 22.77 C1.74 20.59, 0.33 16.76, 0.01 13.69 C-0.32 10.63, -0.07 6.75, 1.82 4.4 C3.7 2.04, 9.96 0.37, 11.31 -0.44 C12.66 -1.25, 9.88 -0.62, 9.9 -0.48" stroke="#000000" stroke-width="1" fill="none"></path></g><g stroke-linecap="round" transform="translate(384.20264886379437 419.77483646884286) rotate(0 3.4578824866946434 3.5488793942391794)"><path d="M1.49 1.29 C2.27 0.81, 4.57 -0.17, 5.25 -0.3 C5.93 -0.42, 5.41 -0.01, 5.56 0.54 C5.7 1.1, 6.13 2.06, 6.11 3.03 C6.1 3.99, 5.83 5.61, 5.46 6.31 C5.09 7.01, 4.48 7.28, 3.89 7.25 C3.3 7.22, 2.47 6.64, 1.94 6.12 C1.42 5.61, 1.03 4.74, 0.74 4.14 C0.45 3.55, 0.01 3.36, 0.2 2.56 C0.4 1.76, 1.55 -0.37, 1.91 -0.68 C2.27 -0.99, 2.37 0.37, 2.36 0.7 M5.87 -0.2 C6.48 0.22, 5.98 2.43, 6.21 2.99 C6.45 3.55, 7.21 2.77, 7.28 3.16 C7.35 3.54, 7.25 4.72, 6.63 5.29 C6.01 5.86, 4.54 6.29, 3.54 6.56 C2.55 6.83, 1.36 7.26, 0.66 6.91 C-0.04 6.56, -0.73 5.21, -0.64 4.43 C-0.56 3.66, 0.5 2.96, 1.16 2.27 C1.82 1.59, 2.89 0.91, 3.33 0.35 C3.76 -0.22, 3.58 -1.19, 3.78 -1.1 C3.97 -1, 4.14 0.44, 4.49 0.91" stroke="none" stroke-width="0" fill="white"></path><path d="M4.73 0.82 C5.41 1.03, 6.22 0.99, 6.72 1.33 C7.21 1.68, 7.82 1.99, 7.7 2.87 C7.59 3.74, 6.65 5.89, 6.03 6.57 C5.41 7.25, 4.59 6.77, 4.01 6.94 C3.44 7.11, 3.32 7.95, 2.56 7.58 C1.81 7.22, -0.04 5.59, -0.5 4.74 C-0.96 3.9, -0.61 3.36, -0.21 2.53 C0.2 1.69, 1.02 0.04, 1.94 -0.25 C2.86 -0.55, 4.78 0.55, 5.31 0.78 C5.85 1.01, 5.33 1.23, 5.15 1.12 M5.01 1.05 C5.93 1.26, 6.89 0.82, 7.06 1.57 C7.23 2.33, 6.43 4.8, 6.02 5.58 C5.62 6.36, 5.16 5.75, 4.61 6.25 C4.05 6.74, 3.14 8.46, 2.7 8.55 C2.27 8.64, 2.23 7.57, 2 6.8 C1.78 6.02, 1.5 4.99, 1.37 3.92 C1.24 2.84, 1.08 0.89, 1.23 0.36 C1.37 -0.17, 1.72 0.89, 2.22 0.74 C2.72 0.59, 3.95 -0.56, 4.23 -0.54 C4.51 -0.51, 4 0.65, 3.9 0.88" stroke="#000000" stroke-width="1" fill="none"></path></g><g stroke-linecap="round"><g transform="translate(378.48217157462295 431.30055141738865) rotate(0 9.44386146004058 3.7539802559086866)" fill-rule="evenodd"><path d="M0.85 1.05 L5.36 8.5 L14.54 9.75 L20.15 -3.94 L0.44 1.46" stroke="none" stroke-width="0" fill="#868e96" fill-rule="evenodd"></path><path d="M0.17 0.07 C-0.1 2.1, 2.41 3.98, 4.04 9.77 M-0.2 -0.91 C1.24 2.04, 1.47 3.99, 3.59 8.9 M4.48 9.12 C8.35 9.17, 11.01 10.75, 14.16 10.19 M3.61 8.63 C7.67 9, 10.62 9.57, 15.49 10.7 M15.5 9.28 C16.01 6.52, 17.14 0.88, 18.26 -1.77 M14.68 9.73 C15.81 7.67, 16.53 5.21, 19.75 -2.48 M17.67 -3.19 C15.24 -1.86, 10.5 -0.74, -0.86 0.82 M18.7 -3.07 C13.74 -1.11, 8.57 -0.42, 0.49 -0.15 M-0.12 -0.28 C-0.08 -0.53, -0.05 -0.69, -0.05 -0.91 M-0.11 -0.32 C-0.09 -0.45, -0.08 -0.63, -0.07 -0.89" stroke="#868e96" stroke-width="1" fill="none"></path></g></g><g stroke-linecap="round" transform="translate(534.6392206706778 415.92709841125725) rotate(0 21.623537204658533 14.34832842552106)"><path d="M-0.65 -1.24 L43.2 1.34 L42.01 27.95 L1.74 26.88" stroke="none" stroke-width="0" fill="#868e96"></path><path d="M1.58 -1.95 C13.22 -1.05, 22.53 -1.99, 45.06 -1.79 M0.07 0.71 C8.9 0.29, 19.17 0.41, 43.48 -0.22 M41.98 -0.53 C42.77 9.6, 43.64 20.44, 43.79 28.22 M43.53 -0.98 C43.39 10.13, 44.11 22.27, 43.56 27.93 M43.88 30.33 C33.09 30.51, 20 30.17, 1.78 30.32 M43.71 28.65 C27.93 27.9, 12.36 27.56, 0.05 28.09 M-0.48 27.99 C-0.69 21.52, -1.55 12.48, 0.61 -0.29 M-0.91 29.39 C-0.24 18.79, -0.1 9.71, 0.39 -0.63" stroke="#000000" stroke-width="1" fill="none"></path></g><g stroke-linecap="round"><g transform="translate(536.0387595498132 418.31112750439104) rotate(0 9.549035339008697 8.10750960867864)"><path d="M-1.95 1.57 C6.09 4.45, 12.06 12.41, 19.48 15.02 M0.71 -0.74 C8.81 6.1, 16.9 12.64, 21.05 16.95" stroke="#000000" stroke-width="1" fill="none"></path></g></g><g stroke-linecap="round"><g transform="translate(557.5367170705395 435.6665940527772) rotate(0 9.968285056866534 -9.861488542695838)"><path d="M1.57 -0.88 C5.95 -8.48, 15.38 -15.29, 18.74 -18.73 M-0.74 0.68 C7.8 -7.24, 16.04 -16.14, 20.68 -20.4" stroke="#000000" stroke-width="1" fill="none"></path></g></g><g transform="translate(173.97265625 486.203125) rotate(0 26.5 10)"><text x="0" y="14" font-family="Virgil, Segoe UI Emoji" font-size="16px" fill="#000000" text-anchor="start" style="white-space: pre;" direction="ltr">1024kr</text></g><g transform="translate(331.16796875 488.36328125) rotate(0 20.5 10)"><text x="0" y="14" font-family="Virgil, Segoe UI Emoji" font-size="16px" fill="#000000" text-anchor="start" style="white-space: pre;" direction="ltr">512kr</text></g><g transform="translate(495.04296875 488.01953125) rotate(0 24 10)"><text x="0" y="14" font-family="Virgil, Segoe UI Emoji" font-size="16px" fill="#000000" text-anchor="start" style="white-space: pre;" direction="ltr">620kr</text></g></svg>