<svg version="1.1" xmlns="http://www.w3.org/2000/svg" viewBox="0 0 780.9453125 614.2810872395834" width="780.9453125" height="614.2810872395834">
  <!-- svg-source:excalidraw -->
  
  <defs>
    <style>
      @font-face {
        font-family: "Virgil";
        src: url("https://excalidraw.com/Virgil.woff2");
      }
      @font-face {
        font-family: "Cascadia";
        src: url("https://excalidraw.com/Cascadia.woff2");
      }
    </style>
  </defs>
  <rect x="0" y="0" width="780.9453125" height="614.2810872395834" fill="#ffffff"></rect><g stroke-linecap="round" transform="translate(10 10) rotate(0 380.47265625 297.1405436197917)"><path d="M-0.35 -0.52 C187.07 -0.02, 374.31 0.52, 760.24 0.45 M-0.08 0.13 C210.07 -2.73, 420.41 -2.51, 760.91 -0.31 M761.37 -0.05 C760.01 219.13, 759.09 439.04, 760.27 593.9 M761.17 -0.25 C759.02 125.66, 759.25 250.9, 760.56 593.99 M760.32 593.62 C482.65 594.44, 204.78 593.38, -0.13 594.77 M761.05 594.53 C507.41 593.89, 254.01 593.7, -0.37 594.09 M0.21 594.06 C0.14 407.38, 0.06 219.87, 0.42 0.13 M-0.16 594.24 C-1.02 425.94, -1.1 257.06, 0.03 -0.02" stroke="transparent" stroke-width="1" fill="none"></path></g><g stroke-linecap="round" transform="translate(154.78515625 96.625) rotate(0 232.94921875 104.255859375)"><path d="M-0.15 0.82 C183.31 1.38, 364.63 1.73, 466.36 0.2 M0.28 -0.16 C160.16 1.25, 319.25 1.36, 466.15 0.15 M466.64 -0.19 C465.63 63.89, 463.57 129.58, 465.87 208.02 M466.1 -0.15 C466.01 46.61, 465.84 94.18, 466.06 208.75 M465.79 207.96 C292.93 210.44, 121.95 209.38, -0.41 208.12 M466.23 208.06 C307.31 210.29, 149.02 210.28, -0.26 208.57 M-0.29 209.25 C2.18 152.72, 1.49 93.76, -0.93 -0.49 M-0.5 208.87 C1.82 141.16, 1.05 74.61, 0.76 0.24" stroke="#000000" stroke-width="1" fill="none"></path></g><g stroke-linecap="round" transform="translate(153.1303974938769 25.67839195614755) rotate(0 52.48209635416674 17.386067708333343)"><path d="M0 0 C0 0, 0 0, 0 0 M0 0 C0 0, 0 0, 0 0 M-0.78 7.14 C0.1 4.97, 1.94 3.39, 4.69 1.1 M-0.56 6.3 C1.25 4.93, 2.75 3.18, 4.94 0.38 M1.17 13.47 C4.49 7.95, 7.48 6.24, 9.83 -0.03 M-0.49 12.27 C3.29 9, 6.1 5.46, 11.36 0.68 M-0.99 18.07 C4.03 13.8, 5.87 9.84, 14.57 -0.26 M-0.13 17.58 C3.85 13.63, 6.63 9.93, 14.91 1.28 M-1.02 23.4 C7.95 18.49, 13.56 7.92, 22.77 -0.97 M0.21 24.22 C8.55 15.94, 16.38 6.01, 21.59 0.24 M1.94 29.58 C8.4 23.24, 14.87 12.06, 27.57 0.9 M-0.27 31.11 C6.29 24.45, 10.88 16.46, 27 -0.7 M-0.41 35.58 C11.89 23.56, 21.18 12.77, 31.56 -1.44 M0.74 35.06 C11.99 23.13, 21.01 13.5, 30.93 0.1 M6.36 37.32 C16.93 25.83, 24.96 14.23, 37.59 2.13 M6.17 34.96 C15.87 24.78, 24.97 14.17, 37.64 0.54 M13.17 35.88 C21.78 25.38, 29.96 16.69, 44.36 -0.74 M12.42 35.53 C21.56 24.87, 30.39 14.24, 43.43 -0.02 M17.67 35.12 C23.27 27.12, 32.67 18.3, 49.5 1.86 M17.53 35.4 C26.35 24.42, 35.14 13.89, 46.78 -0.67 M21.13 33.65 C34.83 23.5, 42.49 11.47, 53.07 -1.23 M23.2 34.48 C29.77 26.51, 38.59 16.46, 53.9 0.23 M25.56 37.53 C36.1 22.49, 49.26 10.3, 56.7 -1.54 M27.87 35.22 C38.79 21.69, 51.34 8.7, 58.87 -0.76 M31.24 34.91 C42.97 21.96, 54.75 8.47, 63.1 1.71 M33.33 34.67 C42.53 23.47, 52.95 12.08, 63.18 -1.05 M37.82 36.79 C45.31 27.32, 55.96 14.4, 67.14 0.29 M37.81 35.72 C49.72 22.02, 60.57 8.91, 67.85 0.15 M41.82 35.64 C50.47 27.67, 58.08 19, 75.41 1.67 M44.56 35.17 C56.38 21.94, 67.49 7.01, 75.05 -1 M49.77 34.12 C58.02 24.18, 71.11 11.42, 81.28 -0.33 M48.97 34.95 C58.01 23.25, 70.07 12.46, 80.15 -0.83 M55.71 35.77 C62.16 26.38, 66.67 20.52, 84.48 -0.8 M55.12 34.27 C64.35 21.86, 76.07 9.45, 85.31 -0.98 M58.27 33.7 C67.25 25.59, 76.97 12.77, 90.12 -1.11 M58.94 34.74 C68.69 24.14, 80.13 11.02, 89.65 -0.29 M65.61 33.99 C76.34 21.98, 87.12 11.63, 96.31 -0.17 M64.08 35.31 C70.38 28.79, 77.99 20.09, 94.73 0.4 M71.72 36.67 C81.84 24.47, 91.49 11.75, 101.19 0.21 M70.32 35.66 C79.35 25.4, 87.23 13.61, 100.75 0.4 M74.77 34.66 C83.78 25.01, 91.18 18.33, 105.81 0.81 M74.94 36.62 C81.36 26.87, 90.41 18.28, 105.41 1.06 M80.03 35.17 C85.29 29.22, 91.98 23.24, 106.64 6.65 M79.66 36.06 C89.39 24.72, 96.63 16.24, 105.41 6.97 M86.94 34.4 C91.39 25.68, 99.89 17.86, 106.86 14.16 M84.73 35.07 C89.4 30.77, 95.88 24.24, 105.89 11.5 M92.65 34.26 C97.67 29.91, 101.5 23.31, 106.38 16.9 M90.52 35.07 C93.65 31.8, 97.18 28.09, 105.31 18.09 M95.39 36.66 C99.18 32.12, 100.4 30.98, 105.26 25.6 M95.75 35.97 C97.38 33.66, 100.21 31.77, 105.14 24.97 M101.37 35 C102.46 33.45, 103.92 32.65, 105.79 31.17 M101.93 35.46 C103.03 34.22, 104.28 32.42, 105.42 30.9" stroke="#fa5252" stroke-width="0.5" fill="none"></path><path d="M0.28 0.2 C31.08 1.24, 62.4 -1.43, 105.78 -0.65 M-0.49 -0.54 C30.93 0.06, 63.48 0.11, 104.72 0.18 M104.79 0.88 C106.34 11.19, 103.32 22.74, 104.16 36.43 M104.94 0.23 C103.93 13.68, 105.16 25.12, 105.7 35.53 M104.43 33.15 C62.53 35.23, 22.77 35.44, 1.18 36.17 M104.05 34.81 C78.19 35.18, 50.7 36.36, -0.48 35.75 M-1.01 36.18 C1.82 25.31, 1.88 19.31, 0.44 -0.57 M0.82 35.05 C0.44 23.34, 0.45 11.76, 0.54 -0.51" stroke="#000000" stroke-width="1" fill="none"></path></g><g stroke-linecap="round" transform="translate(474.9663349938769 34.278652372814236) rotate(0 31.9384765625 10.528971354166657)"><path d="M0 0 C0 0, 0 0, 0 0 M0 0 C0 0, 0 0, 0 0 M-0.33 5.69 C0.37 4.74, 2.6 4.26, 5.2 -0.31 M-0.14 6.25 C1.71 4.15, 3.95 2.1, 5.27 0.22 M1.38 11.11 C5.14 7.32, 8.03 4.97, 10.78 -1.17 M0.73 12.12 C3.72 8.21, 8.47 3.69, 10.46 -0.82 M-0.48 20.13 C4.5 11.83, 13.04 4.32, 16.48 0.08 M-0.85 18.57 C4.14 12.97, 9.81 7.2, 15.75 1.01 M2.35 24.14 C5.87 19.49, 10.62 15.1, 20.37 1.63 M2.23 22.22 C8.1 14.2, 15.29 7.06, 21.73 -0.24 M8.25 23.71 C15.8 14.55, 23.41 5.64, 28.04 1.05 M8.18 21.27 C15.49 13.78, 22.88 5.23, 26.2 0.88 M10.53 24.16 C20.87 13.22, 26.2 5.44, 32.26 0.38 M13.13 22.17 C20.75 13.2, 28.58 3.62, 32.33 -0.9 M16.5 23.74 C21.18 15.46, 28.58 12.53, 36.06 0.55 M18.13 22.4 C24.48 14.9, 28.56 10, 36.79 0.43 M23.27 24.06 C28.39 15.82, 36.29 4.15, 44.34 -2 M21.94 22.53 C28.09 16.75, 31.72 11.25, 43.3 -0.7 M28.59 23.55 C33.69 13.93, 41.61 5.61, 46.89 -0.52 M27.98 21.99 C33.23 16.17, 37.31 10.66, 46.73 0.73 M33.31 24.38 C38.26 18.25, 41.87 13.51, 54 -1.38 M33.69 21.57 C37.63 17.46, 42.36 11.85, 52.72 -0.54 M37.59 21.42 C40.81 18.69, 46.9 13.28, 59.46 -1.27 M38.93 22.8 C46.11 14.65, 52.74 7.58, 57.73 0.14 M45.93 21.63 C52.64 12.59, 57.14 7.21, 64.17 1.37 M43.9 22.83 C52.31 12.81, 58.77 4.12, 64.66 0.43 M48.14 20.83 C57.42 15.87, 63.4 6.52, 65.21 3.42 M48.21 23.63 C54.87 16.24, 57.91 10.85, 66.99 1.51 M53.13 22.31 C57.86 16.28, 61.16 14.14, 65.53 7.53 M55.46 22.13 C58.18 17.47, 61.15 14.83, 66.33 8.87 M60.46 22.07 C62.43 19.48, 64.15 17.73, 67.28 15.26 M60.25 23.05 C62.05 19.73, 64.4 17.74, 67.32 14.36" stroke="#4c6ef5" stroke-width="0.5" fill="none"></path><path d="M-0.25 0.28 C15.06 1.9, 33.92 -1.23, 65.71 0.01 M-0.92 0.94 C21.38 0.16, 41.23 -0.46, 64.01 -0.83 M65.59 0 C61.86 6.97, 64.46 13.68, 62.85 21.29 M64.61 -0.14 C63.56 7.87, 63.83 15.42, 63.47 21.31 M65.81 21.89 C37.44 22.47, 11.61 20.58, -0.42 20.55 M63.17 20.64 C46.32 20.53, 30.59 20.89, 0.75 20.65 M-1.6 21.37 C1.28 16.78, 1.53 8.17, 1.49 1.48 M0.12 21.67 C-0.78 16.08, 0.45 10.85, 0.45 -0.07" stroke="#000000" stroke-width="1" fill="none"></path></g><g stroke-linecap="round" transform="translate(554.3787698897099 34.57975914364755) rotate(0 31.9384765625 10.528971354166657)"><path d="M0 0 C0 0, 0 0, 0 0 M0 0 C0 0, 0 0, 0 0 M-1.05 6.49 C1.12 5.35, 2.13 3.08, 5.45 0.16 M-0.53 6.47 C1.26 4.39, 3.22 2.14, 5.34 -0.02 M0.45 12.42 C3.95 9.62, 6.87 5.86, 11.47 1.42 M0.88 12.06 C3.23 8.64, 5.5 5.22, 11.2 -0.28 M0.45 17.84 C6.4 13.56, 12.33 6.28, 17.56 0.19 M-0.43 18.53 C6.9 10.33, 12.81 4.37, 16.28 0.57 M1.81 21.54 C5.57 17.33, 14.06 8.45, 19.9 0.43 M2.4 22.55 C8.71 14.8, 14.91 7.66, 22.09 -0.9 M5.43 22.91 C12.59 16.38, 19.3 5.61, 28.15 0.68 M6.69 21.85 C12.4 16.77, 17.93 10.03, 25.57 1.05 M13.01 23.09 C18.33 17.35, 21.89 11.07, 30.66 -1.41 M11.35 23.26 C19.22 13.85, 28.37 4.54, 31.58 -0.87 M15.96 23.46 C25.93 14.43, 30.64 5.12, 35.76 0.03 M18.81 22.52 C23.21 15.44, 28.56 9.83, 36.1 0.18 M21.14 22.06 C26.94 19.5, 31.36 13.72, 41.3 1.72 M22.91 23.26 C29.94 14.01, 36.33 7.25, 42.82 -0.7 M27.82 21.09 C32.1 15.82, 36.26 11.82, 47.74 -0.06 M28.78 23.83 C35.67 14.45, 43.38 6.13, 48.23 1.02 M31.95 23.76 C40.41 15.68, 44.88 9.15, 51.69 1.23 M33.25 22.8 C39.37 15.45, 46.26 7.19, 52.25 -0.57 M36.57 21.33 C45 11.93, 55.09 5.69, 58.98 -0.95 M38.19 23.29 C41.81 18.72, 47.95 11.96, 57.29 -0.6 M42.68 22.46 C48.81 15.05, 55.94 6.07, 62.23 0.5 M43.5 22.91 C49.88 16.61, 53.6 10.57, 62.83 0.64 M48.33 23.95 C55.32 15.98, 60.31 9.66, 67.93 1.25 M49.16 21.93 C55.79 16.49, 60.6 8.6, 66.62 3.2 M56 23.3 C60.33 16.09, 65.19 13.5, 67.85 9.84 M54.8 22.39 C59.09 18.16, 62.56 13.93, 67.07 9.27 M60.1 22.3 C61.61 20.55, 63.01 18.33, 67.52 13.47 M59.82 22.5 C62.5 19.84, 64.44 17.77, 66.4 14.38" stroke="#4c6ef5" stroke-width="0.5" fill="none"></path><path d="M0.25 -1.38 C18.48 0.24, 31.81 1.26, 61.9 -0.03 M0.92 -0.45 C17.12 -0.19, 34.9 0, 64.22 0.12 M63.96 -0.23 C62.19 8.2, 65.08 17.57, 65.42 20.31 M63.88 -0.32 C64.15 8.5, 63.25 16.07, 64.33 21.38 M65.65 19.27 C40.82 20.44, 18.9 21.27, 0.75 20.14 M63.58 20.45 C47.18 20.95, 30.16 19.86, 0.24 20.62 M1.9 21.13 C-0.21 14.56, -1.33 10.9, 1.29 1.56 M-0.45 21.74 C0.49 13.81, 0.12 7.44, 0.62 0.68" stroke="#000000" stroke-width="1" fill="none"></path></g><g stroke-linecap="round" transform="translate(197.49237666054364 137.40039716448086) rotate(0 87.26399739583337 19.68261718749997)"><path d="M0 0 C0 0, 0 0, 0 0 M0 0 C0 0, 0 0, 0 0 M-0.17 5.99 C0.58 5.22, 3.2 2.56, 4.44 0.56 M0.07 6.39 C1.76 4.27, 3.41 2.38, 5.32 0.03 M-1.3 12.63 C2.76 9.24, 6.5 2.49, 12.15 0.27 M-0.29 11.78 C3.06 9.12, 6.26 5.13, 10.09 0.57 M0.67 18.99 C4.85 14.6, 7.27 9.64, 14.39 -0.98 M-0.99 19.16 C5.3 11.5, 12.91 3.95, 15.31 -0.44 M-1.63 25.4 C9.1 15.5, 14.56 5.33, 20.14 -0.29 M1.22 24.46 C6.17 16.77, 12.05 10.55, 20.49 -0.15 M-1.69 30.04 C5.53 25.84, 11.41 18.38, 25.02 2.15 M0.07 31.23 C9.4 19.46, 18.03 10.11, 26.54 -0.28 M-0.26 35.1 C7.27 26.26, 14.63 18.58, 32.12 -0.38 M0.7 37.85 C12.26 23.15, 24.53 9.58, 32.61 0.69 M-0.07 42.3 C12.48 29.43, 21.02 18.21, 35.41 1.66 M1.23 41.34 C12.24 28.06, 24.15 14.02, 35.98 -0.14 M5.2 39.12 C19.64 22.58, 35.83 9.3, 43.36 -1.27 M6.83 41.08 C13.84 32.56, 23.45 21.79, 41.67 -0.93 M10.66 41 C21.98 27.77, 34.14 13.01, 45.96 0.93 M11.48 41.46 C21.82 30.73, 29.39 20.27, 46.56 1.06 M16.97 41.74 C28.85 28.19, 38.73 16.24, 54.29 -1.34 M17.79 39.72 C30.16 27.46, 40.85 12.8, 52.97 0.61 M24.13 41.95 C37.23 24.66, 50.88 12.29, 59.59 1.33 M22.79 40.93 C34.47 28.09, 45.36 15.29, 58.73 0.69 M29.05 39.72 C37.02 30.71, 44.62 20.87, 64.85 -2 M28.55 40.08 C40.56 26.89, 51.34 14.79, 62.81 -0.35 M34.64 39.35 C42.88 26.97, 55.93 14.07, 67.79 0.16 M33.26 41.31 C44.83 28.95, 54.37 16.06, 69.4 -0.64 M39.31 41.99 C45.25 30.44, 57.19 19.61, 72.52 -1.69 M39.84 39.98 C48.56 29.52, 56.11 19.15, 73.49 0.34 M42.07 42.39 C56.36 25.23, 70.58 10.91, 80.54 0.73 M43 39.92 C53.58 30.02, 63.05 17.68, 78.98 -0.03 M48.1 39.49 C62.64 25.86, 71.11 16.14, 86.33 -1.9 M49.87 39.5 C59.71 27.82, 69.37 17.32, 84.27 -0.42 M53.8 41.22 C67.83 25.46, 78.92 10.11, 88.39 -1.72 M55.08 40.85 C62.69 30.8, 73 20.48, 90.35 0.67 M60.34 39.09 C71.47 24.73, 85.62 12.54, 96.82 -1.12 M59.34 39.98 C68.98 30.87, 78.03 20.15, 96.4 0.02 M66.75 40.95 C74.78 27.34, 89.09 15.67, 100.38 -1.94 M64.57 39.95 C77.53 26.82, 88.43 13.23, 99.88 -0.12 M70.81 42.39 C79.9 29.54, 88.97 18.48, 106.05 -0.89 M69.78 41.77 C78.35 29.95, 88.22 20.65, 106.13 -0.91 M77.38 39.68 C86.41 26.47, 97.19 14.44, 110.11 1.25 M75.52 39.83 C82.94 32.09, 90.49 23.94, 110.44 -0.71 M80.78 40.72 C88.03 32.37, 94.25 22.86, 117 0.97 M81.18 40.26 C88.8 30.71, 98.79 21.51, 117.02 0.76 M87.66 42.46 C97.72 29.67, 110.79 15.66, 121.71 -0.98 M85.98 40.87 C94.87 31.55, 101.96 23.44, 122.36 0.86 M92.1 41.62 C97.46 31.34, 104.87 24.63, 126.1 1.34 M91.03 41.32 C104 26.89, 115.23 12.78, 127.6 -0.54 M99.12 39.32 C105.97 29.69, 112.85 21.65, 131.82 -1.5 M96.95 40.23 C109.48 27.18, 121.29 14.38, 132.47 -0.21 M103.79 39.84 C116.48 25.68, 128.81 13.68, 137.37 -1.63 M101.96 41.37 C108.94 32.4, 116.99 22.09, 138.39 -0.33 M106.78 39.24 C118.04 31.64, 123.75 21.91, 143.65 0.8 M107.45 40.81 C119.33 27.88, 131.46 12.88, 143.07 -0.42 M113.42 40.12 C123.33 27.73, 136.91 14.12, 147.02 -1.62 M112.1 41.08 C125.36 26.15, 138.64 11.8, 147.58 -0.11 M117.25 40.2 C123.86 31.42, 133.05 24, 152.89 -1 M117.46 40.3 C126.07 31.89, 135.31 22.67, 152.97 -1.03 M123.08 39.14 C136.38 27.86, 144.79 12.8, 160.77 -1.33 M124.05 40.39 C138.15 25.99, 151.03 10.24, 159.33 0.38 M130.61 39.12 C138.27 26.43, 150.97 15.86, 165.81 0.12 M128.96 40.14 C137.85 29.34, 148.48 19.6, 164.43 -1.02 M133.4 39.59 C146.86 26.25, 156.8 11.6, 167.89 1.53 M133.92 41.49 C144.15 28.8, 155.03 14.93, 168.78 0.16 M138.51 41.9 C147.27 31.14, 153.94 21.92, 173.17 -0.82 M138.9 40.54 C148.72 29.43, 160 17.39, 174.22 -0.11 M145.52 40.08 C151.47 31.75, 160.85 23.72, 173.92 6.24 M144.26 41.85 C155.09 29.7, 165.11 17.96, 175.81 6.05 M150.12 41.42 C155.73 33.87, 163.86 22.85, 173.15 14 M150.23 41.48 C154.82 34.42, 161.67 28.04, 175.44 13.08 M155.14 41.23 C160.23 32.13, 167.17 26.18, 173.21 19 M155.14 41.21 C159.56 36.37, 164.02 30.58, 174.53 17.6 M162.15 39.5 C166.15 37.45, 168.1 32.27, 175.39 23.92 M160.88 39.69 C166.23 33.77, 171.27 28.45, 174.62 24.76 M166.27 40.04 C166.35 40.11, 170.35 37.4, 174.26 31.48 M165.38 40.67 C169.01 38.14, 170.93 34.38, 173.92 30.93 M171.85 40.58 C172.39 39.9, 172.59 39.25, 175.01 36.67 M171.34 40.27 C172.47 39.59, 173.14 38.51, 174.94 36.46" stroke="#40c057" stroke-width="0.5" fill="none"></path><path d="M1.9 0.07 C39.11 -0.52, 77.26 0.56, 175.82 1.56 M-0.45 0.69 C57.29 -1.68, 113.9 -1.18, 175.15 0.68 M175.15 -0.32 C175.95 13.44, 176.33 28.32, 175.71 40.55 M174.83 -0.84 C175 12.28, 173.98 25, 175.38 39.87 M172.55 39.59 C125.61 42.38, 75.93 40.9, 1.17 38.87 M173.86 39.54 C113.94 39.21, 54.49 38.77, 0.89 38.43 M0.4 39.83 C0.5 28.62, 0.04 16.33, 1.05 1.82 M0.94 39.4 C0.32 28.96, -0.2 18.48, 0.71 -0.3" stroke="#000000" stroke-width="1" fill="none"></path></g><g stroke-linecap="round" transform="translate(197.56561884804364 191.9039778936476) rotate(0 65.15787760416663 9.082031249999972)"><path d="M0 0 C0 0, 0 0, 0 0 M0 0 C0 0, 0 0, 0 0 M-0.25 5.69 C0.78 4.8, 1.18 3.29, 5.27 -0.09 M-0.07 6.72 C0.82 4.95, 1.81 3.29, 5.32 0.27 M1.06 13.12 C2.4 9.53, 5.07 5.59, 9.7 0.48 M-0.56 12.82 C4.42 7.45, 7.43 2.89, 11.25 0.52 M0.88 19.79 C2.93 15.12, 10.07 9.57, 16.75 0.63 M-0.14 19.21 C5.29 12.72, 10.73 6.63, 16.12 -0.41 M4.68 18.41 C8.52 13.79, 11.51 10.74, 19.47 0.42 M5.05 18.89 C10.37 12.08, 16.78 4.92, 21.12 0.19 M8.94 16.49 C14.97 11.96, 20.51 5.49, 26.25 0.47 M10.9 19.02 C16.29 11.82, 21.04 7.45, 25.45 -0.32 M17.63 16.03 C21.28 13.18, 25.66 3.48, 30.44 -1.1 M15.62 18.61 C19.76 12.2, 23.9 7.03, 32.47 0.42 M22.65 18.21 C24.35 14.94, 28.87 9.37, 37.48 -0.18 M20.18 18.18 C26.61 12.3, 30.52 6.78, 36.73 0.4 M25.79 19.68 C28.92 12.53, 36.01 10.2, 40.9 -0.4 M25.8 18.02 C30.95 11.56, 37.29 5.32, 42.37 0.47 M32.14 18.88 C36.11 11.43, 40.52 5.11, 45.7 -0.77 M31.78 17.61 C36.98 13.23, 41.87 7.08, 48.09 0.75 M36.05 16.33 C39.28 14.12, 44.82 11.34, 52.34 -1.39 M36.94 17.92 C41.26 14.51, 43.87 10.54, 53.48 -0.06 M42.54 16.97 C46.77 14.12, 53 5.86, 56.14 0.83 M41.54 18.75 C46.53 12.89, 50.91 7.44, 57.97 -0.31 M49.26 18.45 C51.2 13.51, 54.82 7.74, 63.23 -1.45 M48.65 17.09 C50.19 14.62, 54.09 10.14, 63.22 -0.08 M51.93 17.48 C55.23 12.77, 59.67 8.39, 70 -1.75 M52.08 18.49 C59.06 11.6, 65.55 3, 68.04 -0.81 M58.26 18.07 C63.71 10.71, 68.01 5.86, 75 -1.42 M57.79 17.32 C62.91 13.13, 68.39 7.41, 74.79 -0.01 M65.38 17.93 C70.08 14.34, 73.7 7.71, 78.43 -1.34 M63.79 18.21 C66.99 13.44, 71.52 10.96, 80.27 -0.82 M69.16 17.47 C72.86 10.96, 80.26 4.59, 86.04 0.39 M68.87 19.1 C72.21 13.91, 75.76 9.99, 84.16 -0.78 M72.9 18.39 C78.87 10.1, 86.35 4.96, 88.58 0.77 M73.81 18.8 C79.25 13, 85.11 6.55, 89.87 0.59 M78.05 20.24 C82.14 15.53, 88.33 9.32, 93.73 -1.81 M79.58 17.66 C85.79 10.95, 90.58 5.82, 95.03 -0.87 M83.49 19.45 C89.25 12.72, 92.83 10.96, 101.55 0.8 M85.06 17.6 C89.81 13.21, 92.57 8.88, 100.33 0.34 M88.99 17.72 C96.02 12.63, 101.87 3.43, 104.4 0.73 M89.96 18.49 C93.8 14.2, 98.35 7.75, 105.92 -1.23 M95.11 16.24 C100.01 12.11, 106.34 5.45, 110.41 -1.48 M95.21 17.47 C99.26 15.12, 102.48 9.9, 110.38 0.32 M98.68 20.07 C106.84 10.1, 111.07 7.12, 114.71 2.05 M99.92 19.3 C104.57 14.68, 107.76 11.33, 116.42 0.39 M104.7 16.41 C107.94 14.07, 113.34 10.87, 122.2 -0.78 M105.72 17.71 C110.57 13.33, 116.5 6.63, 121.06 0.41 M109.79 18.94 C114.3 12.39, 117.45 8.15, 128.23 0.45 M111.69 17.76 C116.24 12.49, 119.45 7.16, 126.86 -0.51 M118.15 18.14 C120.79 12.07, 124.84 5.84, 130.61 1.25 M116.78 17.15 C122.74 12.18, 127.8 5.15, 131.32 0.98 M121.16 17.77 C124.08 15.98, 127.3 11.56, 131.65 7.64 M122.49 18.53 C124.62 15.65, 127.02 13.54, 131.51 7.09 M127.7 17.46 C129.04 16.49, 129.31 15.14, 131.79 13.05 M127.72 17.74 C128.66 16.83, 129.79 15.65, 131.51 13.63" stroke="#40c057" stroke-width="0.5" fill="none"></path><path d="M1.31 0.77 C32.47 -0.47, 63.21 0.11, 130.09 -0.61 M0.38 0.15 C33.36 -0.87, 67.88 -2.02, 130.24 -0.78 M129.92 -0.15 C131.94 6.27, 131.27 11.64, 132 18.94 M131 0.2 C129.35 4.24, 130.25 8.98, 129.8 17.77 M128.54 17.3 C94.58 16.4, 62.07 18.39, -0.28 19.48 M131.29 18.64 C100.71 20.39, 71.09 20.13, 0.79 17.75 M1.17 19.83 C-0.84 13.9, -1.45 6.13, 1.27 0.35 M0.3 17.98 C0.19 11.65, -0.75 3.58, -0.36 0.8" stroke="#000000" stroke-width="1" fill="none"></path></g><g stroke-linecap="round" transform="translate(435.15513707721016 127.34505862281424) rotate(0 68.98111979166663 68.98111979166663)"><path d="M10.97 30.74 C10.97 30.74, 10.97 30.74, 10.97 30.74 M10.97 30.74 C10.97 30.74, 10.97 30.74, 10.97 30.74 M5.26 39.33 C10.71 31.01, 18.5 23.49, 36.79 6.17 M5.55 41.35 C17.57 29.76, 28.71 14.67, 32.88 8.03 M3.08 51.47 C15.88 34.66, 26.33 22.84, 41.81 6.46 M2.15 49.98 C14.03 39.6, 26.62 26.29, 41.39 9.29 M6.43 57.63 C20.03 45.86, 30.96 28.34, 45.65 4 M3.25 58.2 C12.95 45.7, 24.84 37.5, 49.34 5.03 M4.41 61.64 C18.84 41.04, 40.05 20.94, 56.55 6.34 M3.82 64.89 C14.49 49.58, 26.14 36.48, 52.77 3.99 M1 69.91 C21.51 42.2, 45.42 21.62, 58.61 4.47 M2.82 70.73 C23.04 49.6, 43.16 27.04, 61.19 4.13 M1.71 78.52 C16.62 60.09, 36.15 39.46, 63.26 -0.29 M4.78 73.38 C27.5 47.56, 47.96 24.77, 65.87 1.59 M1.71 83.39 C20.63 61.54, 35.5 49.13, 73.91 4.57 M4.85 79.69 C24.07 60.65, 38.77 41.4, 71.46 3.66 M3.13 84.85 C32.02 57.62, 58.2 22.57, 73.32 5.59 M5.06 86.39 C24.41 66.16, 44.25 40.93, 76.35 1.65 M4.48 88.32 C29.49 63.95, 56.74 33.83, 79.68 1.55 M4.68 90.77 C21.97 76.51, 37.68 55.42, 79.64 5.16 M4.01 98.63 C36.38 58.84, 62.25 32.85, 83.3 8.26 M6.49 97.09 C24.84 75.63, 41.1 57.56, 86.72 4.93 M7.12 95.48 C25.5 76.34, 47.95 56.53, 91.98 3.75 M9.16 98.08 C34.75 71.24, 62.39 39.67, 89.7 6.12 M9.03 103.96 C30.38 76.57, 49.45 53.42, 98.4 6.6 M12.83 101.6 C36.03 73.41, 57.91 44.96, 95.65 4.68 M16.82 106.52 C38.62 74.85, 64.41 42.05, 98.18 7.84 M14.09 104.54 C46.93 71.87, 77.72 34.02, 99.59 7.29 M14.82 108.01 C39.79 83.93, 64.6 53.49, 102.5 12.31 M18.35 110.04 C38.43 85.71, 59.78 62.87, 102.12 10.86 M20.64 109.37 C44.82 83.91, 63.23 55.83, 108.9 9.78 M20.76 111.21 C43.5 84.73, 68.8 56.42, 107.06 13.62 M21.25 113.74 C45.15 82.48, 76.38 50.49, 110.64 12.11 M21.22 117.24 C47.9 87.39, 72.64 55.89, 107.85 14.39 M22.26 122.53 C46.44 93.84, 65.4 70.33, 110.7 20.59 M22.64 119.65 C44.84 91.93, 69.91 63.49, 112.39 16 M24.77 117.9 C58.04 94.37, 81.88 60.63, 117.18 20.82 M26.7 122.72 C50.62 95.34, 71.59 69.25, 115.47 18.18 M31.28 125.55 C58.07 91.33, 84.63 66.8, 118.71 21.61 M28.74 124.39 C52.06 98.77, 73.65 76.59, 117.04 20.57 M35.16 127.87 C65.88 94.86, 89.61 54.96, 126.42 26.31 M34.06 125.5 C56.22 100.8, 78.06 79.45, 121.16 24.09 M34.6 127.82 C61.48 98.3, 87.65 70.23, 120.74 29 M36.95 127.68 C68.59 89.76, 102.98 49.13, 125.74 27.2 M42.75 128.79 C61.26 113.34, 76.59 91.95, 129.98 28.53 M41.66 133.31 C74.52 93.37, 106.44 56.89, 126.01 29.98 M42.37 130.26 C61.36 107.09, 85.75 84.71, 127.15 34.97 M42.02 135.22 C64.13 110.08, 81.2 89.68, 130.34 36.69 M49.17 133.62 C73.23 108.09, 94.61 80.79, 134.65 42.46 M47.74 134.58 C70.86 110.16, 91.63 84.86, 129.85 38.64 M51.97 137.36 C69.56 117.7, 85.23 93.8, 131.58 39.55 M53.5 134.18 C78.86 105.36, 103.94 75.74, 132.62 44.6 M55.3 139.14 C77.89 116.64, 89.38 96.5, 133.89 47.91 M56.44 136.49 C83.73 108.89, 108.68 77.99, 132.81 49.59 M62.8 135.19 C89.14 105.82, 118.63 76.46, 137.65 56.1 M60.59 137.22 C77.58 114.92, 93.42 97.91, 132.86 52.7 M64.66 138.69 C84.41 118.58, 98.43 106.12, 137.78 55.27 M67.1 135.68 C85.85 117.97, 107.37 93.9, 135.2 58.84 M68.85 138.12 C89.35 119.15, 113 97.47, 136.83 68.51 M70.62 139.23 C92.77 114.48, 111.82 92.51, 133.87 64.19 M74.02 139.18 C99.82 115.75, 121.97 88.1, 134.94 70.71 M74.91 137.25 C88.5 123.95, 100.77 110.59, 137.49 70.09 M82.64 132.33 C96.1 119.85, 114.41 97.95, 139.25 73.23 M83.09 134.76 C95.66 119.14, 113.01 101.81, 137.62 75.77 M89.33 136.54 C108.62 114.96, 121.03 102.53, 139.25 82.21 M88.82 136.23 C109.51 113.82, 122.9 96.15, 136.99 78.75 M99.33 128.81 C105.45 115.77, 120.27 103.77, 135.02 94.32 M99.72 133.13 C110.19 118.81, 120.46 105.52, 132.72 90.63" stroke="#fab005" stroke-width="0.5" fill="none"></path><path d="M10.94 30.78 C15.12 22.62, 23.74 14.1, 32.72 9.08 C41.69 4.05, 54.63 1.51, 64.78 0.64 C74.93 -0.23, 84.44 0.25, 93.61 3.88 C102.77 7.5, 113 15.19, 119.75 22.42 C126.49 29.65, 131.39 38.1, 134.07 47.26 C136.75 56.42, 137.46 67.47, 135.83 77.36 C134.2 87.26, 129.62 98.02, 124.32 106.64 C119.02 115.25, 112.21 123.87, 104.04 129.06 C95.88 134.25, 85.59 136.99, 75.35 137.78 C65.1 138.57, 51.8 137.37, 42.58 133.81 C33.36 130.25, 26.5 123.57, 20.03 116.39 C13.56 109.21, 6.82 100.59, 3.78 90.73 C0.74 80.87, -2.68 70.55, 1.78 57.23 C6.24 43.91, 21.27 20.26, 30.52 10.81 C39.77 1.37, 56.68 -0.4, 57.29 0.56 M85.86 0.43 C95.24 1.76, 108.69 7.62, 116.25 14.57 C123.8 21.52, 127.37 32.22, 131.16 42.14 C134.94 52.07, 139.52 63.8, 138.94 74.14 C138.36 84.48, 132.45 95.65, 127.66 104.18 C122.87 112.71, 117.84 120.06, 110.21 125.33 C102.59 130.61, 91.51 134.12, 81.9 135.83 C72.29 137.54, 62.66 138.35, 52.56 135.6 C42.46 132.84, 28.69 125.92, 21.32 119.3 C13.95 112.68, 11.96 105.33, 8.35 95.87 C4.74 86.4, -0.51 72.6, -0.33 62.53 C-0.16 52.45, 4.1 44, 9.38 35.41 C14.66 26.82, 23.84 16.47, 31.35 10.97 C38.87 5.46, 45.14 4, 54.46 2.39 C63.78 0.78, 81.89 1.45, 87.27 1.32 C92.66 1.19, 87.09 0.52, 86.76 1.59" stroke="#000000" stroke-width="1" fill="none"></path></g><g stroke-linecap="round" transform="translate(308.32408238970993 319.85645185198086) rotate(0 87.26399739583337 12.117513020833371)"><path d="M0 0 C0 0, 0 0, 0 0 M0 0 C0 0, 0 0, 0 0 M-0.94 5.82 C0.42 5.1, 2.59 2.95, 4.82 0.44 M-0.12 6.52 C0.97 4.82, 2.61 3.26, 4.64 0.14 M1.33 12.65 C2.89 8.88, 3.8 7.24, 12.01 -0.28 M0.05 11.65 C3.59 6.57, 7.71 2.1, 10.74 -0.05 M0.76 20.19 C2.61 14.15, 7.34 8.69, 16.14 -0.79 M-0.53 18.94 C3.73 13.97, 7.56 10.09, 15.84 0.83 M1.65 22.31 C4.8 18.73, 12.11 13.54, 19.88 0.12 M-0.1 23.36 C6.37 17.76, 10.59 11.01, 20.79 0.53 M5.09 24.13 C11.91 16.42, 17.47 12.72, 25.03 1.97 M5.17 23.47 C9.63 18.79, 16.25 11.92, 26.56 -0.6 M12.61 22.78 C17.76 13.46, 27.22 5.26, 30.47 1.19 M11.13 24.49 C18.84 14.98, 25.4 6.65, 32.04 -0.66 M15.67 23.75 C24.57 16.65, 31.45 6.77, 35.97 -0.54 M15.31 23.46 C22.63 16.86, 27.7 9.2, 36.93 0.23 M20.36 23.26 C24.39 19.15, 30.09 11.94, 42.09 -2.03 M21.07 23.57 C26.3 16.73, 32.6 10.4, 42.19 -0.8 M24.83 22.57 C34.23 17.32, 42.77 7.31, 45.66 1.8 M27.5 23.59 C34.57 15.49, 41.31 9.02, 46.9 1.03 M33.22 24.26 C40.24 13.21, 47.96 6.84, 51.68 -1.86 M32.84 24.12 C35.99 19.27, 40.55 14.16, 52.7 -0.56 M37.12 22.62 C42.8 17.34, 47.53 12.08, 56.77 0.68 M36.37 25 C43.03 17.95, 49.45 11.46, 58.67 -0.5 M41.49 23.85 C48.79 15.7, 59.48 5.61, 65.12 -0.13 M41.84 23.63 C48.65 17.96, 54.46 9.82, 63.76 -1.12 M46.08 24.47 C54.41 14.9, 61.83 7.6, 67.93 -0.71 M47.33 24.32 C53.7 17.27, 59.35 10.86, 69.7 0.3 M54.76 24.34 C60.39 15.2, 69.61 6.81, 75.3 -2.12 M52.06 25.36 C60.68 14.84, 70.75 5.07, 75.36 -1.2 M60.19 25.22 C66.29 16.25, 73.75 7.73, 79.74 -1.64 M57.54 24.65 C63.17 17.95, 69.34 11.64, 79.72 0.11 M62.58 23.34 C69.78 15.06, 79.32 8.94, 84.05 1.43 M63.74 24.27 C71.61 15.66, 79.51 7.15, 84.24 -0.01 M68.92 24.47 C71.58 18.91, 77.2 14.29, 88.78 -1.84 M68.92 24.57 C77.29 14.29, 85.72 4.49, 89.75 0.57 M72.48 24.24 C80.7 14.93, 89.93 7.13, 96.17 0.28 M74.42 24.56 C81.53 15.2, 90.14 6.26, 94.9 -0.3 M80.7 22.39 C86.02 15.47, 96.56 7.29, 101.59 0.49 M79.16 25.17 C88.02 14.48, 94.95 5.39, 101.04 -0.7 M86.64 23.2 C90.83 17.1, 96.59 12, 105.44 -1.24 M84.53 23.69 C91.06 18.23, 97.33 10.8, 106.62 -1.32 M88.93 25.67 C93.89 16.87, 101.31 11.59, 112.67 -1.33 M90.74 25.01 C97.74 15.23, 106.79 4.53, 112.12 0.92 M95.18 23.94 C101.49 14.32, 113.2 8.01, 115.95 -1.55 M95.8 24.07 C100.76 17.33, 105.36 12.68, 115.78 0.93 M101.97 25.52 C108.81 16.94, 114.93 10.75, 122.5 -0.45 M101.87 25.13 C108.75 15.57, 115.17 7, 121.79 0.03 M106.22 23.68 C112.15 15.09, 120.08 9.02, 126.73 1.23 M106.21 24.13 C110.6 18.41, 117.71 11.67, 127.49 -0.37 M113.17 23.69 C120.67 14.22, 125.92 6.69, 131.54 1.54 M111.55 24.05 C119.49 15.49, 126.85 5.31, 132.11 0.22 M115.81 23.19 C124.86 18.62, 130.63 7.68, 137.78 -0.26 M117.02 25.25 C123.77 16.18, 130.04 9.43, 136.68 0.76 M122.83 22.46 C127.2 16.36, 134.3 10.42, 142.19 0.54 M122.54 24.79 C129.84 14.01, 138.26 3.63, 143.41 -0.96 M126.01 24.76 C132.02 18.38, 137.07 11.08, 146.78 0.44 M127.74 24.82 C133.65 17.86, 137.75 10.86, 147.66 0.99 M132.22 22.64 C139.61 17.07, 147.49 7.68, 152.84 0.02 M132.35 23.85 C140.66 14.04, 149.32 5.32, 153.28 -0.95 M138.82 26.23 C144.94 16.09, 153.35 6.87, 158.33 -1.72 M137.14 25.19 C142.05 18.41, 148.34 12.32, 158.56 -0.5 M141.6 25.57 C148.15 18.93, 154.85 12.35, 163.84 0.95 M144.28 24.2 C152.57 15.06, 160.33 5.21, 163.59 0.79 M150.22 22.94 C156.38 15.53, 167.02 5.99, 170.03 -1.23 M148.27 24.72 C153.76 19.41, 157.65 13.76, 170.22 0.93 M152.17 23.13 C161.93 13.72, 170.92 6.57, 175.52 -0.16 M154.37 24.32 C159.31 18.79, 162.86 13.4, 175.44 -0.23 M160.16 25.79 C164.87 18.73, 168.5 12.45, 173.17 5.97 M159.46 24.74 C164.16 17.69, 169.85 10.29, 174.04 6.46 M164.26 23.77 C165.44 21.3, 169.22 19.79, 174.9 11.84 M164.52 23.34 C167.47 20.56, 170.7 16.46, 174.96 12.4 M170.03 23.85 C170.54 23.81, 172.26 22.11, 174.28 17.52 M169.52 24.4 C170.86 22.93, 171.41 21.86, 175.13 18.43" stroke="#40c057" stroke-width="0.5" fill="none"></path><path d="M-1.55 -0.3 C36.67 0.04, 70.58 -1.19, 174.91 0.54 M-0.82 -0.9 C45.34 1.4, 91.91 1.7, 174.54 -0.72 M175.17 1.17 C175.75 6.17, 173.17 15.9, 173.17 22.62 M175.1 -0.4 C173.92 4.59, 175.07 9.71, 174.06 24.21 M175.99 24.89 C116.19 23.78, 56.7 24.66, 0.15 22.9 M174.39 23.24 C130.55 24.12, 86.81 23.64, -0.86 24.68 M-1.55 23.89 C-0.89 16.75, 1.42 10.95, 1.23 0.55 M-0.12 23.96 C-0.69 17.3, 0.9 11.7, 0.61 -0.81" stroke="#000000" stroke-width="1" fill="none"></path></g><g stroke-linecap="round" transform="translate(331.68020218137735 355.02735028948086) rotate(0 65.15787760416663 6.949869791666629)"><path d="M0 0 C0 0, 0 0, 0 0 M0 0 C0 0, 0 0, 0 0 M-0.43 6.05 C0.62 4.17, 2 3.37, 5.52 0.24 M-0.01 6.44 C1.08 4.74, 2.15 3.52, 4.87 0.13 M-0.34 12.77 C3.91 7.22, 7.45 4.33, 9.84 0.5 M0.56 12.07 C3.14 9.65, 5.41 5.67, 10.41 0.59 M4.38 14.41 C5.48 9.73, 11.5 5.23, 15.45 1.9 M2.88 15.83 C6.55 11.97, 10.6 7.03, 15.73 0.94 M6.62 14.19 C12.48 9.5, 16.32 4.94, 21.22 -0.15 M7.9 15.93 C10.98 10.81, 14.72 6.17, 20.69 0.52 M13.49 16.32 C17.36 10.99, 21.8 5.84, 25.74 2.21 M11.67 16.41 C16.35 11.33, 20.92 5.67, 26.2 -0.2 M19.93 17.35 C23.43 10.42, 27.96 5.92, 31.03 0.82 M18.88 14.93 C21.08 11.41, 24.07 7.83, 31.74 -0.41 M24.07 14.66 C29.72 11.08, 33.03 4.08, 35.81 1.93 M23.93 15.16 C26.99 13.11, 28.42 8.12, 37.21 0.55 M30.45 17.54 C32.7 8.54, 41.29 4.38, 41.41 -1.48 M28.62 14.84 C32.23 12.6, 35.32 7.26, 42.36 -0.5 M33.47 15.52 C39.48 9.76, 42.7 4.13, 49.23 0.59 M33.07 16.17 C38.16 9.86, 44.28 4.23, 46.64 0.83 M41.37 16.64 C42.89 12.98, 47.36 6.73, 54.68 -0.53 M40.16 15.12 C43.45 11.19, 46.45 5.97, 52.67 0.76 M43.62 15.8 C50.44 10.96, 54.34 3.54, 56.58 -1.81 M44.4 15.79 C48.89 10.26, 55.96 4.23, 58.11 0.78 M50.89 17.05 C54.13 11.95, 61.73 5.95, 63.13 -0.28 M50.34 15.72 C53.01 11.96, 56.27 7.61, 63.07 -0.11 M54.45 17.92 C57.58 11.35, 63.33 3.93, 69.36 1.32 M55.49 16.32 C58.97 11.92, 63.37 7.04, 68.03 0.03 M62.14 15.71 C63.05 11.18, 68.12 6.99, 75.03 -1.16 M60.73 16.08 C63.6 11.71, 66.14 9.55, 75.21 0.36 M65.82 15.83 C69.68 13.69, 72.89 10.85, 78.09 1.05 M65.19 15.06 C69.03 11.35, 73.44 5.84, 78.54 0.67 M73.26 14.09 C76.17 12.63, 79.08 6.47, 84.6 -2.07 M70.68 16.12 C74.76 11.85, 77.08 9.11, 85.01 -0.34 M75.61 17.02 C81.17 13.5, 83.33 10.77, 90.21 -0.99 M76.6 15.31 C79.89 11.49, 82.68 7.54, 90.6 0.31 M83.33 16.18 C87.85 9.97, 89.67 6.51, 94.04 1.65 M82.32 15.23 C85.38 12.3, 89.61 7.86, 95.66 0.24 M85.62 16.49 C90.43 10.72, 95.46 6.74, 100.16 1.36 M86.1 15.33 C90.89 11.29, 94.3 8.37, 100.88 1.02 M94.39 14.51 C96.54 12.94, 100.21 8.61, 107.51 0.15 M93.52 15.3 C96.21 11.1, 100.94 4.78, 106.62 0.54 M95.66 14.79 C101.79 10.31, 107.47 6.99, 111.34 0.79 M98.34 15.39 C101.28 11.02, 103.56 8.03, 110.85 0.35 M101.49 16.15 C108.27 10.62, 113.3 6.13, 116.5 -0.1 M102.93 15.72 C106.15 11.55, 111.6 7.27, 115.93 0.74 M109.47 16.01 C112.2 13.41, 114.71 8.09, 122.12 -1.5 M107.2 16.7 C111.72 11.78, 114.61 7.58, 121.74 0.35 M114.61 16.69 C119.42 9.91, 121.05 3.91, 128.41 -1.39 M112.97 16.33 C117.25 10.72, 122.16 4.8, 127.9 0.75 M116.89 17.64 C123.08 10.04, 128.2 6.6, 130.56 -0.15 M118.87 16.48 C122.24 11.06, 125.44 7.74, 132.17 2.03 M123.94 15.46 C126.59 12.56, 128.59 9.1, 131.11 6.8 M123.99 15.6 C125.94 13.01, 128.21 10.5, 131.98 6.75" stroke="#40c057" stroke-width="0.5" fill="none"></path><path d="M0.04 1.11 C43.4 -0.63, 85.2 1.6, 129.77 -1.44 M-0.71 0.71 C30.15 -0.55, 61.17 -0.85, 130.59 -0.44 M129.78 -0.13 C130.57 2.74, 129.67 5.72, 129.03 13.98 M130.63 0.42 C130.55 2.31, 129.64 6, 130.79 14.56 M130.99 12.17 C92.17 16.9, 54.26 16.61, -1.82 15.04 M131.16 13.99 C83.01 15.49, 34.37 14.97, -0.66 13.74 M-1.35 14.13 C-0.06 9.57, 0.3 2.81, 0.23 -0.1 M-0.42 14.57 C0.3 9.79, -0.53 6, -0.39 0.19" stroke="#000000" stroke-width="1" fill="none"></path></g><g stroke-linecap="round" transform="translate(154.91425166054364 430.1119857061475) rotate(0 64.8095703125 66.59505208333337)"><path d="M3.28 1.58 C42.57 1, 83.28 5.23, 126.48 -3.08 M1.43 1.04 C37.2 0.53, 78.68 3.03, 131.37 0.93 M127 -2 C135.79 44.83, 129.66 83.07, 128.24 134.71 M129.4 1.99 C127.93 29.71, 128.96 59.22, 131.35 132.33 M130.34 132.7 C93.08 132.98, 66.96 133.2, 2.29 134.46 M128.74 131.82 C104.84 132.17, 75.32 134.67, -1.35 134.57 M0.86 134.98 C0.72 98.87, 0.39 70.53, -1.1 3.33 M0.91 133.09 C-2.69 79.26, -3.06 30.97, 1.88 -0.32" stroke="#000000" stroke-width="1" fill="none"></path></g><g stroke-linecap="round" transform="translate(184.4715433272106 443.59180341448086) rotate(0 33.81673177083326 28.26497395833337)"><path d="M10.11 8.79 C10.11 8.79, 10.11 8.79, 10.11 8.79 M10.11 8.79 C10.11 8.79, 10.11 8.79, 10.11 8.79 M5.64 22.18 C12.23 17.91, 17.42 7.16, 21.55 4.19 M4.1 17.77 C9.37 14.84, 11.07 11.34, 20.8 2.43 M-0.6 33.25 C10.34 24.52, 11.99 12.97, 25.69 -4.81 M3.46 31.28 C10.46 20.53, 20.22 10.13, 29.14 -2.57 M6.25 37.46 C12.94 28.12, 21.27 19.24, 30.81 -0.96 M2.84 34.1 C10.22 24.13, 17.63 18.37, 33.4 0.66 M7.06 41.86 C11.8 27.88, 22.07 16.22, 41.19 -0.32 M5.16 38.24 C15.21 30.75, 21.85 19.93, 38.37 0.96 M8.67 42.37 C15.05 35.06, 24.51 20, 44.24 0.62 M6.36 43.64 C15.65 33.56, 26.82 21.59, 43.55 2.28 M7.87 46.38 C22.48 34.62, 31.87 24.98, 46.93 5.22 M9.46 43.78 C18.61 34.61, 24.09 27.74, 47.71 4.89 M10.73 47.67 C25.2 36.25, 41.57 20.7, 51.82 2.84 M11.92 49.49 C24.54 30.51, 40.35 14.15, 50.94 6.48 M17.91 51.01 C29.58 38.58, 43.33 23.93, 52.33 7.74 M17.05 48.49 C30.08 37.53, 42.86 21.1, 54.02 5.96 M19.93 55.04 C29.26 44.75, 33.07 34.26, 53.35 7.89 M21.32 53.25 C26.96 43.83, 34.17 34.24, 57.05 11.27 M25.75 57.15 C34.35 37.83, 44.2 30.51, 55.87 14.88 M25.03 52.75 C37.11 39.43, 48.45 27.8, 60.15 14.19 M30.81 56.1 C33.64 49.48, 44.74 38.08, 58.96 15.81 M28.36 56.08 C38.08 40.68, 52.49 30.11, 63.55 17.16 M30.25 56.13 C44.25 38.73, 56.27 25.78, 63.72 19.41 M30.7 55.46 C41.62 42.47, 53.17 32.53, 63.53 20.36 M41.6 55.12 C46.23 43.71, 61.36 30.24, 68.55 22.38 M37.39 55.36 C47.98 44.85, 55.85 39.17, 65.81 22.98 M44.73 58.2 C54.58 43.69, 61.24 40.25, 66.52 31.08 M45.71 53.04 C52.3 43.7, 61.73 37.26, 66.96 29.82 M53.05 56.11 C52.88 50.4, 58.09 43.5, 65.84 33.34 M52.2 53.83 C56.35 48.27, 61.59 39.21, 64.93 34.09" stroke="#fab005" stroke-width="0.5" fill="none"></path><path d="M49.58 5.22 C55.89 8.25, 64.68 14.99, 67.28 20.76 C69.89 26.53, 67.93 34.34, 65.22 39.83 C62.51 45.32, 57.46 50.86, 51.03 53.7 C44.6 56.53, 33.67 58.27, 26.62 56.84 C19.57 55.41, 12.86 49.68, 8.74 45.12 C4.63 40.56, 1.7 35.54, 1.91 29.5 C2.13 23.46, 5.57 13.93, 10.04 8.87 C14.52 3.81, 20.28 -1.36, 28.77 -0.87 C37.26 -0.37, 54.67 8.01, 61 11.85 C67.33 15.69, 67.3 21.85, 66.77 22.16 M20.75 3.15 C27.04 1.12, 36.53 0.44, 43.29 2.52 C50.04 4.61, 57.75 10.65, 61.28 15.64 C64.81 20.64, 65.37 27.36, 64.47 32.49 C63.58 37.63, 60.55 42.15, 55.91 46.44 C51.27 50.73, 43.61 57.19, 36.63 58.23 C29.65 59.27, 20.34 56.34, 14.04 52.68 C7.73 49.01, 0.36 42.57, -1.22 36.25 C-2.8 29.93, 0.54 20.51, 4.56 14.75 C8.57 8.99, 19.73 4.05, 22.89 1.69 C26.04 -0.67, 23.74 0.19, 23.49 0.59" stroke="#000000" stroke-width="1" fill="none"></path></g><g stroke-linecap="round" transform="translate(166.27167353554387 516.6940169561476) rotate(0 36.015625 8.846028645833314)"><path d="M0 0 C0 0, 0 0, 0 0 M0 0 C0 0, 0 0, 0 0 M0.08 7.58 C2 5.19, 2.77 1.93, 6.5 1.95 M-0.83 6.2 C1.57 5.32, 3.08 3.16, 4.41 -0.38 M1.3 14.76 C2.85 10.33, 3.4 8.67, 12.95 2.6 M-0.53 11.81 C1.94 9.73, 6.25 6.52, 10.66 -1.36 M1.98 20.76 C5.94 10.84, 10.38 7.5, 15.48 -0.57 M1.99 19.16 C5.03 12.61, 8.68 4.61, 15.38 1.66 M7.19 15.41 C10.59 9.36, 12.41 3.66, 22.27 -3.82 M5.3 16.45 C11.17 11.86, 18.38 4.57, 20.24 0.76 M8.06 14.84 C19.42 7.97, 23.61 7.32, 25.19 -2.97 M10.07 17.04 C19.35 11.59, 24.27 2.37, 24.44 -1.69 M17.27 19.68 C21.02 7.56, 28.73 5.64, 33.75 0.31 M14.53 19.35 C24.05 12.59, 29.33 6.37, 31.4 0.2 M18.74 16.36 C23.7 12.49, 29.35 10.54, 39.86 1.83 M20.65 17.45 C26.2 13.01, 29.36 11.65, 35.82 2.18 M27.78 19.76 C31.81 12.37, 38.97 3.58, 44.4 -2.58 M25.18 19.82 C31.88 11.69, 35.03 9.91, 43.26 -1.45 M29.68 19.81 C38.99 11.11, 44.24 9.18, 45.38 1.63 M31.22 17.96 C40.02 10.94, 45.21 5.13, 49.16 0.91 M39.86 16.17 C43.71 10.96, 46.4 8.32, 56.57 2.31 M39.27 17.15 C42.79 9.64, 47.74 5.31, 54.46 -1.27 M41.83 21.52 C44.48 10.86, 51.88 9.13, 55.59 3.27 M42.14 17.83 C48.02 12.73, 53.27 3.71, 56.6 2.14 M50.6 20.5 C52.45 11.84, 55.74 6.09, 66.57 2.86 M47.32 18.59 C53.94 9.87, 57.58 6.93, 65.16 -1.42 M52.07 20.59 C57.72 15.4, 61.26 8.48, 68.25 -3.36 M53.28 17.06 C55.49 13.57, 61.97 10.31, 68.84 -0.51 M57.02 19.41 C66.4 15.93, 66.31 8.97, 75.32 -2.5 M58.4 17.37 C62.73 11.28, 69.95 3.74, 73.76 2.47 M61.83 19.15 C68.13 15.97, 70.95 15.54, 71.75 5.86 M62.44 18.7 C67.68 14.03, 68.11 12.41, 74.76 5.7 M68.93 18.07 C69.75 17.08, 70.91 15.1, 72.6 13.3 M69.53 18.09 C69.86 16.97, 71.41 15.74, 73.35 13.29" stroke="#40c057" stroke-width="0.5" fill="none"></path><path d="M3.17 2.81 C18.5 1.17, 42.56 -4.13, 73.85 -1.73 M-1.61 -0.6 C13.38 0.65, 28.72 -1.45, 72.66 2 M74.61 -3.24 C71.55 0.82, 69.01 8.81, 68.94 15.64 M72.33 -0.08 C72.23 6.15, 70.94 11.31, 72.18 17.12 M73.6 21.62 C46.88 16.36, 19.24 16.5, 2.89 19.09 M70.64 17.3 C56.04 17.73, 37.62 16.3, 0.14 19.12 M-0.63 18.12 C-3.21 15.28, -2.32 4.1, -2.93 1.5 M1.63 17.57 C-0.03 13.91, -0.87 7.77, -1.73 -1.11" stroke="#000000" stroke-width="1" fill="none"></path></g><g stroke-linecap="round" transform="translate(166.02753291054364 545.6279362269808) rotate(0 23.8671875 3.9241536458333144)"><path d="M0 0 C0 0, 0 0, 0 0 M0 0 C0 0, 0 0, 0 0 M-0.08 6.01 C1.36 4.93, 3.1 1.98, 5.38 -0.98 M-0.54 6.69 C0.74 3.52, 3.28 2.57, 5.06 0.81 M2.37 7.85 C3.2 4.57, 8.46 0.79, 12.91 0.57 M1.87 10.26 C4.91 7.57, 6.06 5.15, 11.44 0.78 M9.55 7.31 C11.09 8.31, 11.58 2.55, 17.75 -1.96 M8.94 9.88 C11.17 5.34, 12.15 2.04, 16.79 0.2 M11.81 7.54 C14.89 8.38, 18.27 4.9, 23.13 -0.65 M14.01 10.52 C16.03 8.17, 17.03 4.69, 20.51 -0.07 M17.33 8.76 C20.85 7.64, 24.68 5.31, 24.01 -0.52 M19.08 8.64 C21.15 7.75, 21.74 6.03, 27.07 0.33 M22.87 10.24 C25.59 6.63, 28.3 3.71, 29.97 0.39 M24.41 8.46 C27.59 6.03, 30.57 1.14, 31.96 1.07 M29.82 9.45 C33.56 7.89, 33.47 3.57, 38.44 -1.75 M29.58 9.74 C31.77 7.43, 34 5.35, 37.61 1.13 M34.6 9.21 C34.65 9.39, 40.23 6.61, 44.33 0.37 M33.76 8.62 C35.53 7.33, 39.7 3.23, 41.38 1.02 M38.38 7.64 C43.36 6.2, 42 6.55, 49.61 0.8 M38.79 11.05 C41.54 6.02, 44.42 3.96, 47.12 0.18 M44.69 9.05 C45.69 6.83, 48.85 7.42, 50.88 1.57 M44.9 8.76 C46.65 7.32, 49.95 3.69, 50.05 2.39" stroke="#40c057" stroke-width="0.5" fill="none"></path><path d="M0.36 -2.14 C15.24 -2.94, 36.92 0.46, 45.25 0.16 M1.14 0.46 C12.76 -0.78, 25.96 1.62, 48.37 1.85 M46.45 1.54 C46.82 1.17, 46.41 4.65, 47.24 7.91 M47.73 0.43 C47.5 2.57, 47.11 5.02, 47.97 7.86 M46.74 10.48 C34.15 6.26, 22.47 4.11, -2.26 10.55 M48.18 9.79 C37.06 7.21, 29.01 9.67, -0.99 8.2 M0.95 8.24 C0.38 3.5, 1.45 3.4, -0.31 -1.48 M0.25 8.54 C0.4 5.03, -0.45 1.01, -0.42 -0.12" stroke="#000000" stroke-width="1" fill="none"></path></g><g stroke-linecap="round" transform="translate(319.4861917647106 430.74024091448075) rotate(0 64.8095703125 66.59505208333337)"><path d="M-1.54 -1.45 C49.22 -1.42, 101.28 -3.91, 128.17 -2.15 M1.79 1.5 C48.4 -3.86, 94.66 -1.61, 128.05 -1.09 M133 3.66 C129.92 39.12, 123.78 81.33, 127.51 133.24 M128.91 -0.66 C127.48 48.11, 125.4 92.28, 129.02 131.72 M130.22 130.95 C102.13 136.04, 65.64 136.7, 2.59 132.11 M130.28 133.03 C84.36 131.64, 36.57 131.24, 0.25 131.21 M2.48 135.15 C5.63 91.51, 1.16 49.79, 1.74 2.91 M-1.83 134.39 C-1.98 89.95, -0.31 45.73, -0.25 0.6" stroke="#000000" stroke-width="1" fill="none"></path></g><g stroke-linecap="round" transform="translate(349.0434834313776 444.22005862281424) rotate(0 33.81673177083326 28.26497395833337)"><path d="M6.47 13.58 C6.47 13.58, 6.47 13.58, 6.47 13.58 M6.47 13.58 C6.47 13.58, 6.47 13.58, 6.47 13.58 M1.89 25.29 C8.06 18.72, 13.46 5.54, 18.07 4.82 M-0.55 24.69 C9.27 16.53, 15.44 9.97, 22.27 1.41 M4.49 30.14 C8.93 19.2, 17.67 10.94, 26.52 4.63 M4.35 31.3 C11.04 22.14, 17.74 9.95, 27.97 3.08 M3.46 32.21 C9.82 25.36, 16.82 11.82, 35.63 2.36 M4.03 35.39 C12.24 23.43, 23.8 12.94, 33.12 3.34 M5.93 38.28 C11.57 28.7, 20.55 19.69, 36.9 1.4 M4.44 38.57 C18.01 27.03, 27.06 14.57, 38.16 5.33 M4.79 44.84 C16.86 28.55, 30.49 16.24, 44.57 3.69 M7.05 41.68 C20.96 28.16, 31.56 14.66, 42.53 4.88 M7.4 47.42 C18.6 39.17, 26.46 31.16, 48.41 7.13 M10.55 48.25 C20.5 35.08, 32.5 21.66, 44.34 3.93 M9.54 48 C22.04 34.59, 32.33 28.04, 49.06 8.42 M11.71 47.91 C22.87 38.72, 30.01 26.77, 48.67 7.5 M14.95 50.89 C22.15 37.04, 31.48 30.25, 54.09 12.72 M17.87 50.41 C23.56 39.46, 33.88 29.11, 54.58 9.37 M21.93 48.83 C32.36 38.66, 44.07 20.59, 52.65 8.75 M20.43 51.69 C31 42.6, 42.74 27.9, 54.67 13.21 M23.39 53.65 C35.86 43.57, 46.96 26.94, 61.57 17.16 M23.92 54.67 C36.49 40.82, 50.5 24.71, 60.14 13.09 M28.24 56.34 C38.73 42.41, 47.7 32.09, 60.05 17.66 M26.23 57.36 C39.4 40.42, 54.43 22.73, 60.42 18.65 M32.73 53.96 C40.52 45.36, 47 33.96, 63.04 17.69 M31.01 57.84 C46.26 40.54, 57.24 26.19, 63.46 19.76 M39.2 52.76 C50.47 49.95, 51.82 38.01, 68.64 23.23 M37.21 53.42 C47.99 47.58, 55.81 36.26, 64.1 23.49 M47.5 51.58 C55.28 47.03, 59.62 32.43, 65.39 28.7 M47.56 54.15 C54.78 44.65, 63.63 34.93, 66.25 28.03 M56.9 52.69 C55.26 41.43, 60.43 43.82, 71.73 32.33 M53.38 49.65 C60.22 46.5, 63.61 39.05, 67.36 32.11" stroke="#fab005" stroke-width="0.5" fill="none"></path><path d="M24.66 0.08 C31.05 -1.51, 41.23 1.08, 47.74 4.15 C54.26 7.21, 60.35 12.87, 63.74 18.47 C67.13 24.06, 69.64 32.47, 68.06 37.71 C66.47 42.96, 60.35 46.76, 54.22 49.94 C48.08 53.11, 39 57.3, 31.26 56.76 C23.52 56.22, 12.97 51.47, 7.78 46.69 C2.59 41.91, 0.27 33.67, 0.11 28.09 C-0.06 22.51, 0.48 17.63, 6.79 13.21 C13.11 8.79, 31.55 3.59, 37.99 1.54 C44.44 -0.51, 45.75 0.87, 45.49 0.92 M36.65 -1.07 C43.14 -0.89, 49.35 3.42, 54.87 7.06 C60.39 10.71, 68.56 15.02, 69.78 20.8 C71 26.59, 66.68 36.42, 62.19 41.78 C57.69 47.14, 49.13 50.86, 42.79 52.96 C36.46 55.06, 30.51 56.47, 24.18 54.38 C17.84 52.29, 8.35 45.26, 4.78 40.42 C1.21 35.59, 1.87 30.57, 2.73 25.37 C3.59 20.17, 4.37 13.6, 9.94 9.24 C15.51 4.88, 31.85 1.03, 36.16 -0.81 C40.48 -2.65, 36.36 -2.55, 35.84 -1.78" stroke="#000000" stroke-width="1" fill="none"></path></g><g stroke-linecap="round" transform="translate(330.8436136397106 517.3222721644808) rotate(0 36.015625 8.846028645833314)"><path d="M0 0 C0 0, 0 0, 0 0 M0 0 C0 0, 0 0, 0 0 M1.31 5.11 C2.53 5.51, 2.94 4.06, 3.68 -0.23 M-0.03 6.82 C1.35 3.87, 2.87 2.31, 4.26 -0.33 M1.02 9.57 C3.72 8.99, 6.14 1.81, 11.75 -0.08 M0.06 11.39 C3.75 7.74, 6.7 3, 10.25 -0.55 M-2.42 15.89 C2.2 12.44, 13.52 5.84, 17.42 -2.88 M0.05 17.28 C4.71 11.75, 10.47 3.75, 14.59 1.24 M5.29 18.67 C10.43 8.87, 20.56 2.27, 20.95 -0.68 M7.12 17.39 C11.03 11.06, 19 4.49, 21.95 1.41 M10.29 17.5 C20 12.79, 21.78 6.82, 26.49 2.41 M9.72 15.67 C13.47 12.94, 17.82 7.7, 25.48 1.21 M19.56 18.73 C18.74 10.29, 27.04 9.96, 28.62 0.8 M17.79 18.05 C19.05 13.66, 21.86 8.06, 30.11 0.69 M21.74 20.16 C29.79 10.53, 27.97 4.72, 35.97 -1.21 M21.44 16.61 C28.18 9.07, 32.74 4.48, 35.88 -1.15 M26.56 14.48 C30.27 12.85, 33.86 13.52, 45.11 -2.12 M26.44 17.92 C29.79 13.31, 33.7 10.85, 41.9 -0.03 M30.71 16.63 C37.1 12.05, 41.33 7.31, 47.94 0.24 M34.1 17.29 C38.2 11.36, 43.21 4.99, 45.79 1.96 M41.16 19.16 C38.01 15.74, 42.67 8.89, 53.54 -4 M36.73 19.19 C40.82 12.43, 43.66 9.4, 51.59 -1.4 M40.43 20.37 C44.1 14.85, 51.87 6.24, 55.56 -1.31 M40.91 20.18 C45.86 13.15, 51.25 12.01, 57.2 -0.08 M45.24 15.93 C49.97 7.62, 59.34 8.42, 62.09 0.56 M46.24 17.59 C52.05 13.12, 54.93 11.73, 62.37 -1.55 M49.14 18.52 C60.01 14.99, 61.65 9.69, 71.04 0 M54.03 20.02 C58.54 15.06, 59.95 7.09, 68.06 1.61 M55.77 17.92 C62.44 10.86, 73.08 7.53, 74.7 -1.6 M60.56 16.4 C63.9 13.45, 65.12 7.83, 71.12 -0.56 M65.56 19.87 C65.72 16.81, 67.55 12.62, 75.19 9.81 M62.86 18.31 C67.17 14.37, 68.88 12.64, 72.65 7.91 M70.34 17.34 C70.4 17.39, 71.31 14.89, 73.4 14.07 M69.88 17.41 C70.58 16.21, 70.95 15.75, 73.2 12.78" stroke="#40c057" stroke-width="0.5" fill="none"></path><path d="M-0.95 0.15 C26.91 -1.82, 50.49 -1.63, 74.46 -2.1 M1.65 -1.85 C28.36 -0.68, 52.81 -2.17, 72.07 -1.99 M74.64 -0.97 C69.5 6.3, 70.47 11.04, 73.74 14.65 M72.17 1.53 C70.2 6.32, 71.37 12.18, 70.87 19.05 M74.9 20.82 C47.94 20.67, 32.97 15.8, 2.17 14.56 M72.71 17.12 C51.96 16.6, 34.5 15.59, 0.06 15.8 M2.75 16.5 C-1.42 11.51, 1.32 12.7, 0.95 1.03 M-1.07 17.96 C0.73 11.53, 0.1 6.55, -1.07 -1.57" stroke="#000000" stroke-width="1" fill="none"></path></g><g stroke-linecap="round" transform="translate(330.5994730147106 546.256191435314) rotate(0 23.8671875 3.9241536458333144)"><path d="M0 0 C0 0, 0 0, 0 0 M0 0 C0 0, 0 0, 0 0 M-1.55 7.75 C2.48 4.36, 4.67 0.64, 4.39 1.18 M0.16 6.21 C1.13 3.8, 3.49 1.5, 4.29 1.1 M0.09 9.33 C5.98 5.01, 6.5 4.86, 10.59 1.52 M1.57 9.73 C5.03 5.75, 7.59 2.85, 10.21 0.17 M6.67 7.4 C9.8 9.26, 11.04 6.19, 13.7 2.61 M7.5 8.48 C11.3 4.94, 13.62 1.89, 16.17 1.52 M13.14 8.78 C13.8 8.62, 16.53 4.21, 20.86 2.46 M12.31 9.27 C15.45 7.27, 18.44 4.1, 22.22 0.85 M18.29 11.4 C22.06 5.99, 25.09 3.21, 27.52 -1.2 M17.19 8.45 C19.9 6.87, 21.1 4.69, 26.8 0.04 M23.83 8.67 C24.63 7.6, 30.72 0.51, 32.48 -1.72 M23.39 9.31 C26.41 5.01, 28.65 1.33, 32.4 0.27 M30 12.26 C30.83 3.97, 34.14 1.72, 35.92 2.4 M27.7 10.53 C29.86 6.6, 33.95 3.11, 35.96 -0.82 M31.72 9.56 C35.19 7.41, 40.15 6.85, 41.23 -1.8 M33.95 9.41 C37.01 5.81, 41.47 1.77, 42.59 0.71 M38.36 9.67 C42.7 5.23, 46.93 3.03, 47.52 1.75 M38.79 10.15 C41.09 7.33, 43.1 3.93, 48.64 -0.41 M45.17 8.16 C47.59 6.18, 48.46 5.33, 48.8 1.44 M45.18 9.76 C46.27 6.83, 49.04 3.63, 49.97 2.4" stroke="#40c057" stroke-width="0.5" fill="none"></path><path d="M0.15 0.94 C10.15 -1.22, 22.82 2.65, 45.64 3.1 M-1.85 1.17 C18.99 -2.36, 36.09 -0.75, 45.75 0.22 M47.31 -1.25 C48.23 2.19, 47.9 6.79, 46.38 9.12 M48.41 -0.75 C47.5 1.84, 47.1 3.63, 48.34 7.76 M50.86 4.59 C36.49 11.12, 16.58 10.71, -3.13 6.34 M47.16 6.66 C30.87 8.42, 13.98 8.23, -1.89 6.12 M-0.53 7.31 C-1.14 5.69, 1.07 2.59, 0.46 0.47 M0.12 8.03 C-0.24 6.11, 0.14 4.1, -0.7 -0.63" stroke="#000000" stroke-width="1" fill="none"></path></g><g stroke-linecap="round" transform="translate(485.61249384804387 427.087897164481) rotate(0 64.8095703125 66.59505208333337)"><path d="M-2.98 -1.31 C34.48 -0.96, 70.34 4.41, 128.77 2.13 M-0.8 -1.39 C35.58 0.5, 67.21 -0.01, 128.38 1.22 M128.38 -0.29 C128.68 32.57, 128.23 72.47, 130.78 137 M131.3 -0.77 C127.87 32.06, 129.13 65.01, 131.27 133.65 M131.03 129.73 C82.13 132.53, 34.66 129.07, -3.3 130.41 M129.53 132.59 C91.42 132.63, 54.52 129.94, -1.28 134.86 M-0.8 132.68 C0.04 90.6, -0.79 42, 2.6 3 M-0.28 133.7 C0.22 85.18, 1.35 34.56, 1.17 -1.07" stroke="#000000" stroke-width="1" fill="none"></path></g><g stroke-linecap="round" transform="translate(515.1697855147108 440.56771487281424) rotate(0 33.81673177083326 28.26497395833337)"><path d="M4.09 14.16 C4.09 14.16, 4.09 14.16, 4.09 14.16 M4.09 14.16 C4.09 14.16, 4.09 14.16, 4.09 14.16 M2.95 22.08 C9.72 14.34, 14.09 14.43, 16.38 5.83 M0.81 23.81 C6.03 17.39, 13.38 13.72, 17.56 3.82 M1.34 26.14 C6.82 23.71, 17.38 8.66, 27.06 3.34 M-0.62 28.75 C5.27 23.27, 13.38 17.16, 25.6 1.61 M-1.89 34.87 C7.02 26.35, 18.23 11.57, 33.32 3.21 M-0.25 36.1 C8.21 27.46, 14.14 18.69, 28.57 1.21 M1.36 40.52 C5.9 29.8, 19.69 20.09, 34.57 4.15 M1.64 38.41 C10.28 29.59, 20.95 18.42, 35.32 4.22 M7.68 42.98 C15.68 26.76, 28.52 17.19, 44.34 4.9 M4.7 44.58 C20.84 27.9, 32.08 12.28, 40.86 1.38 M9.37 43.64 C16.59 29.33, 26.55 24.32, 43.53 4.28 M5.79 44.68 C18.5 34.23, 28.95 23.01, 47.58 1.68 M12.4 53.75 C23.08 31.12, 36.25 16.18, 50.37 5.66 M9.01 51.21 C20.15 37.86, 31.29 29.07, 49.32 3.64 M13.72 55.05 C27.13 34.33, 44.91 21.1, 50.3 8.24 M13.04 50.75 C20.87 43.09, 33.4 29.7, 53.36 7.61 M21.23 53.9 C32.05 34.7, 45.05 16.39, 57.35 12.22 M19.18 54.93 C28.54 39.39, 38.5 29.9, 55.78 7.84 M20.41 52.93 C33.74 43.29, 45.47 33.29, 60.11 11.18 M20.11 55.08 C33.97 42.22, 47.59 27.56, 59.51 9.83 M22.25 52.62 C36.42 43.15, 48.12 30.61, 58.95 12.2 M27.76 56.72 C36.3 45.55, 44.33 33.75, 61.67 13.34 M30.58 54.2 C43.54 49.37, 52.72 32.3, 68.69 11.46 M30.81 57.43 C40.69 46.75, 46.26 38.91, 68.22 16.98 M37.98 57.78 C42.15 50.96, 49.46 35.28, 66.61 24.94 M34.61 57.87 C45 50.14, 53.45 40.18, 68.1 19.8 M39.7 57.68 C44.96 49.29, 51.73 40.68, 64.9 24.18 M41.18 56.08 C50.13 44.63, 58.82 34.88, 65.74 26.02 M50.48 53.38 C55.65 47.67, 62.07 43.39, 68.81 29.72 M50.06 55.38 C55.85 47.06, 62.38 37.29, 69.18 33.42" stroke="#fab005" stroke-width="0.5" fill="none"></path><path d="M22.64 1.45 C29.38 -0.94, 38.93 -1.25, 45.91 0.86 C52.89 2.96, 61.1 9.01, 64.52 14.08 C67.94 19.16, 67.64 25.23, 66.41 31.31 C65.18 37.4, 62.75 46.3, 57.14 50.58 C51.53 54.86, 40.4 56.84, 32.75 56.98 C25.11 57.12, 16.75 55.05, 11.28 51.44 C5.81 47.82, 1.1 41.53, -0.06 35.28 C-1.22 29.03, -0.79 20.05, 4.29 13.93 C9.38 7.81, 24.8 1.02, 30.44 -1.43 C36.09 -3.89, 37.93 -1.62, 38.14 -0.8 M63.29 14.42 C67.71 18.48, 67.48 22.47, 66.38 27.97 C65.27 33.47, 61.75 42.28, 56.67 47.43 C51.59 52.58, 42.79 57.9, 35.89 58.88 C29 59.85, 21.16 57.39, 15.3 53.29 C9.43 49.18, 2.55 40.83, 0.69 34.27 C-1.17 27.7, 1.15 19.08, 4.13 13.9 C7.1 8.73, 12.44 5.72, 18.56 3.21 C24.68 0.69, 34.12 -2.3, 40.85 -1.2 C47.57 -0.1, 55.61 7.6, 58.91 9.81 C62.22 12.02, 61.16 11.47, 60.67 12.06" stroke="#000000" stroke-width="1" fill="none"></path></g><g stroke-linecap="round" transform="translate(496.96991572304387 513.669928414481) rotate(0 36.015625 8.846028645833314)"><path d="M0 0 C0 0, 0 0, 0 0 M0 0 C0 0, 0 0, 0 0 M-0.57 5.91 C0.37 3.31, 2.74 1.42, 6.52 -0.43 M0.02 5.86 C1.14 3.94, 2.89 2.25, 4.68 -0.23 M3.19 14.69 C2.77 6.98, 10.47 1.8, 11.18 -2.27 M0.02 13.55 C2.32 9.51, 4.06 5.54, 11.89 -1.47 M1.32 20.45 C1.87 10.2, 7.27 7.46, 18.77 -3.56 M0.77 18.18 C6.04 12.17, 8.67 5.77, 15.15 1.33 M2.74 14.18 C9.97 13.71, 21.07 2.04, 21.16 -2.96 M7.03 19.34 C11.24 11.2, 14.39 5.21, 19.9 1.83 M8.38 14.45 C10.41 10.1, 15.92 9.43, 23.22 2.83 M10.42 17.64 C17.7 13.29, 21.35 3.72, 25.4 -0.77 M15.37 19.27 C18.53 15.32, 25.87 5.9, 35.06 3.39 M15.42 17.83 C20.53 14.34, 23.45 8.1, 32.24 1.83 M19.23 19.27 C24.84 10.36, 24.81 12.41, 40.27 -3.39 M23.68 17.93 C28.13 12.11, 30.96 6.03, 35.73 -0.63 M29.95 20.47 C34.74 15, 38.12 4.21, 42.59 3.31 M27.07 17.86 C30.04 12.65, 35.19 9.62, 43.48 1.69 M30.68 18.76 C33.59 12.89, 41.02 10.11, 49.97 1.9 M33.22 18.18 C34.93 11.13, 41.33 7.49, 48.44 -0.53 M33.78 14.65 C43.94 16.14, 43.3 11.19, 49.27 -1.04 M38.63 16.78 C41.26 12.29, 46.73 11.13, 54.45 -1.13 M38.85 20.56 C48.98 13.04, 55.88 5.59, 54.31 3.9 M41.55 20.26 C50.05 10.99, 53.87 5.73, 57.35 -1.74 M44.1 15.74 C53.18 10.77, 58.89 10.21, 64.56 3.55 M46.32 16.93 C53.19 11.99, 58.02 4.84, 62.49 -1.16 M53.76 17.14 C57.14 12, 59.44 7.01, 65.21 0.84 M53.71 19.72 C57.82 13.45, 60.92 10.23, 69.82 1.41 M56.07 18.75 C67.59 12.95, 68.98 7.53, 72.54 -1.13 M59.86 19.62 C62.17 12.41, 67.34 4.87, 74.15 2.5 M66.46 18.27 C67.31 13.79, 72.44 8.64, 71.35 6.85 M63.39 16.83 C68.3 13.94, 70.17 9.19, 74.5 6.5 M69.75 18.41 C69.58 16.69, 71.14 15.46, 72.46 12.11 M69.06 18.22 C70.36 16.43, 71.32 16.35, 73.45 13.61" stroke="#40c057" stroke-width="0.5" fill="none"></path><path d="M-1.46 -3.52 C12.95 2.32, 28.13 2.6, 70.65 3.41 M1.15 0.97 C21.28 1.45, 44.58 2.22, 71.35 1.64 M69.27 -2.54 C68.76 6.75, 72.95 14.07, 70.15 17.65 M70.52 -0.72 C71.93 5.78, 73.79 13.27, 73.07 17.39 M71.02 18.33 C52.02 13.63, 32.72 13.66, -0.21 17.48 M72.02 19.4 C58 16.27, 40.11 18.94, 0.86 17.36 M-0.35 20.45 C-1.02 12.63, 2.37 9.83, 2.49 -1.51 M-0.81 18.85 C0.24 12.81, 1.09 6.98, 0.89 1.49" stroke="#000000" stroke-width="1" fill="none"></path></g><g stroke-linecap="round" transform="translate(496.72577509804387 542.603847685314) rotate(0 23.8671875 3.9241536458333144)"><path d="M0 0 C0 0, 0 0, 0 0 M0 0 C0 0, 0 0, 0 0 M-0.75 5.15 C0.5 3.74, 2.44 4.17, 4.2 1.19 M-0.8 5.88 C0.66 4.29, 2.36 3.15, 4.39 1.11 M4.25 8.56 C4.44 8.34, 6.67 4.15, 8.81 -1.32 M3.33 9.23 C4.26 6.53, 5.21 6.84, 9.47 -0.24 M9.41 7.69 C8.85 5.29, 12.8 5.18, 13.29 0.48 M8.04 10.06 C10.56 5.48, 12.84 2.34, 16.22 1.38 M10.22 8.82 C17.58 8.62, 17.65 2.67, 19.38 -0.04 M13.57 10.26 C13.96 6.64, 15.75 3.82, 22.49 -1.03 M16.46 6.97 C19.02 5.1, 23.79 1.17, 27.77 1.6 M18.37 10.03 C21.7 6.49, 21.89 3.74, 25.61 0.35 M24.18 8.24 C28.15 6.53, 28.57 5.02, 34.16 -1.19 M23.25 9.89 C26.49 6.37, 27.95 4.32, 33.15 -1.04 M29.43 9.91 C29.14 4.39, 35.98 5.63, 34.5 0.5 M28.55 11.28 C31.3 6.43, 33.88 2.16, 36.3 0.42 M35.61 11.88 C39.12 6.85, 39.17 1.79, 44.76 -1.53 M33.91 9.22 C35.77 7.32, 39.05 4.88, 43.71 -0.06 M39.74 7.81 C41.99 6.71, 46.24 5.72, 48.6 -0.24 M39.37 8.77 C40.04 7.71, 42.93 5.8, 47.02 -1.06 M43.14 11.09 C47.02 7.68, 48 4.4, 50.14 1.75 M44.1 9.66 C45.72 8.4, 48.84 6.25, 50.1 3.32" stroke="#40c057" stroke-width="0.5" fill="none"></path><path d="M-3.52 -1.54 C12.61 -0.5, 23.66 -1.03, 51.15 0.72 M0.97 -1.63 C12.86 -1.79, 26.03 -1.23, 49.38 0.04 M46.61 -1.4 C48.34 2.57, 49.22 3.39, 47.71 8.85 M47.41 -0.18 C47.39 3.66, 47.85 6.49, 47.6 7.46 M48.37 5.85 C28.91 4.31, 12.95 7.39, -0.21 4.36 M49.44 9.14 C32.64 6.57, 21.2 8.71, -0.33 7.79 M1.22 7.36 C0.11 6.67, 1.2 4.56, -0.67 -0.37 M0.51 7.93 C-0.04 6.06, -0.46 3.76, 0.66 -0.11" stroke="#000000" stroke-width="1" fill="none"></path></g></svg>