<svg width="357" height="408" viewBox="0 0 357 408" fill="none" xmlns="http://www.w3.org/2000/svg">
<path d="M347.264 0H9.73636C4.35912 0 0 6.64247 0 14.8364V393.164C0 401.358 4.35912 408 9.73636 408H347.264C352.641 408 357 401.358 357 393.164V14.8364C357 6.64247 352.641 0 347.264 0Z" fill="#F3F5F8"/>
<path d="M0 9.74545C0 4.36319 4.35912 0 9.73636 0H347.264C352.641 0 357 4.36319 357 9.74545V38.9818H0V9.74545Z" fill="#E0E7EC"/>
<path fill-rule="evenodd" clip-rule="evenodd" d="M19.4727 24.3636C22.1614 24.3636 24.3409 22.1821 24.3409 19.4909C24.3409 16.7997 22.1614 14.6182 19.4727 14.6182C16.784 14.6182 14.6046 16.7997 14.6046 19.4909C14.6046 22.1821 16.784 24.3636 19.4727 24.3636ZM35.7 24.3636C38.3887 24.3636 40.5682 22.1821 40.5682 19.4909C40.5682 16.7997 38.3887 14.6182 35.7 14.6182C33.0113 14.6182 30.8318 16.7997 30.8318 19.4909C30.8318 22.1821 33.0113 24.3636 35.7 24.3636ZM56.7955 19.4909C56.7955 22.1821 54.616 24.3636 51.9273 24.3636C49.2386 24.3636 47.0591 22.1821 47.0591 19.4909C47.0591 16.7997 49.2386 14.6182 51.9273 14.6182C54.616 14.6182 56.7955 16.7997 56.7955 19.4909Z" fill="#94A2AB"/>
<path d="M334.282 74.7151H22.7182C19.1333 74.7151 16.2273 77.6239 16.2273 81.2121V209.527C16.2273 213.115 19.1333 216.024 22.7182 216.024H334.282C337.867 216.024 340.773 213.115 340.773 209.527V81.2121C340.773 77.6239 337.867 74.7151 334.282 74.7151Z" fill="#E0E7EC"/>
<path fill-rule="evenodd" clip-rule="evenodd" d="M189.698 139.205C191.788 139.205 193.483 137.494 193.483 135.384C193.483 133.274 191.788 131.564 189.698 131.564C187.608 131.564 185.914 133.274 185.914 135.384C185.914 137.494 187.608 139.205 189.698 139.205ZM179.224 162.341H157.444C156.17 162.341 155.393 160.94 156.066 159.858L170.591 136.515C171.216 135.511 172.665 135.485 173.317 136.472C175.587 139.92 180.248 147.005 184.256 153.179L188.464 146.377C189.074 145.39 190.492 145.345 191.165 146.291L200.761 159.8C201.52 160.869 200.769 162.352 199.457 162.365L190.159 162.457L179.224 162.341Z" fill="#94A2AB"/>
<path fill-rule="evenodd" clip-rule="evenodd" d="M89.25 229.018C87.4575 229.018 86.0045 230.472 86.0045 232.267V238.764C86.0045 240.558 87.4575 242.012 89.25 242.012H180.123C181.916 242.012 183.368 240.558 183.368 238.764V232.267C183.368 230.472 181.916 229.018 180.123 229.018H89.25ZM193.105 229.018C191.311 229.018 189.859 230.472 189.859 232.267V238.764C189.859 240.558 191.311 242.012 193.105 242.012H251.523C253.316 242.012 254.768 240.558 254.768 238.764V232.267C254.768 230.472 253.316 229.018 251.523 229.018H193.105Z" fill="#E0E7EC"/>
<path fill-rule="evenodd" clip-rule="evenodd" d="M19.4727 51.9758C17.6803 51.9758 16.2273 53.4301 16.2273 55.2243C16.2273 57.0184 17.6803 58.4727 19.4727 58.4727H25.9636C27.7561 58.4727 29.2091 57.0184 29.2091 55.2243C29.2091 53.4301 27.7561 51.9758 25.9636 51.9758H19.4727ZM295.336 51.9758C293.543 51.9758 292.091 53.4301 292.091 55.2243C292.091 57.0184 293.543 58.4727 295.336 58.4727H337.527C339.32 58.4727 340.773 57.0184 340.773 55.2243C340.773 53.4301 339.32 51.9758 337.527 51.9758H295.336ZM204.464 55.2243C204.464 53.4301 205.916 51.9758 207.709 51.9758H249.9C251.693 51.9758 253.145 53.4301 253.145 55.2243C253.145 57.0184 251.693 58.4727 249.9 58.4727H207.709C205.916 58.4727 204.464 57.0184 204.464 55.2243ZM262.882 51.9758C261.089 51.9758 259.636 53.4301 259.636 55.2243C259.636 57.0184 261.089 58.4727 262.882 58.4727H282.355C284.148 58.4727 285.6 57.0184 285.6 55.2243C285.6 53.4301 284.148 51.9758 282.355 51.9758H262.882Z" fill="#94A2AB"/>
<path d="M315.118 228H41.8818C37.5288 228 34 230.93 34 234.545V401.455C34 405.07 37.5288 408 41.8818 408H315.118C319.471 408 323 405.07 323 401.455V234.545C323 230.93 319.471 228 315.118 228Z" fill="#F3F5F8"/>
<path d="M122.093 243.421H56.4367C53.5358 243.421 51.1842 245.674 51.1842 248.452V311.335C51.1842 314.114 53.5358 316.366 56.4367 316.366H122.093C124.994 316.366 127.345 314.114 127.345 311.335V248.452C127.345 245.674 124.994 243.421 122.093 243.421Z" fill="#FFF3A4"/>
<path fill-rule="evenodd" clip-rule="evenodd" d="M101.621 282.06L89.8031 270.741C89.3303 270.289 88.6738 270.012 87.9516 270.012H78.7597C77.3153 270.012 76.1335 271.144 76.1335 272.527V281.331C76.1335 282.023 76.4224 282.651 76.9082 283.117L88.7263 294.436C89.199 294.889 89.8556 295.165 90.5778 295.165C91.3 295.165 91.9566 294.889 92.4293 294.423L101.621 285.62C102.107 285.167 102.396 284.538 102.396 283.846C102.396 283.155 102.094 282.513 101.621 282.06ZM80.7294 276.3C79.6395 276.3 78.7597 275.458 78.7597 274.414C78.7597 273.37 79.6395 272.527 80.7294 272.527C81.8193 272.527 82.6991 273.37 82.6991 274.414C82.6991 275.458 81.8193 276.3 80.7294 276.3Z" fill="#FFD200"/>
<path d="M211.385 243.421H145.729C142.828 243.421 140.476 245.674 140.476 248.452V311.335C140.476 314.114 142.828 316.366 145.729 316.366H211.385C214.286 316.366 216.637 314.114 216.637 311.335V248.452C216.637 245.674 214.286 243.421 211.385 243.421Z" fill="#FFF3A4"/>
<path fill-rule="evenodd" clip-rule="evenodd" d="M190.913 282.06L179.095 270.741C178.622 270.289 177.966 270.012 177.244 270.012H168.052C166.607 270.012 165.426 271.144 165.426 272.527V281.331C165.426 282.023 165.715 282.651 166.2 283.117L178.018 294.436C178.491 294.889 179.148 295.165 179.87 295.165C180.592 295.165 181.249 294.889 181.721 294.423L190.913 285.62C191.399 285.167 191.688 284.538 191.688 283.846C191.688 283.155 191.386 282.513 190.913 282.06ZM170.022 276.3C168.932 276.3 168.052 275.458 168.052 274.414C168.052 273.37 168.932 272.527 170.022 272.527C171.111 272.527 171.991 273.37 171.991 274.414C171.991 275.458 171.111 276.3 170.022 276.3Z" fill="#FFD200"/>
<path d="M300.677 243.421H235.021C232.12 243.421 229.769 245.674 229.769 248.452V311.335C229.769 314.114 232.12 316.366 235.021 316.366H300.677C303.578 316.366 305.929 314.114 305.929 311.335V248.452C305.929 245.674 303.578 243.421 300.677 243.421Z" fill="#FFF3A4"/>
<path fill-rule="evenodd" clip-rule="evenodd" d="M280.205 282.06L268.387 270.741C267.915 270.289 267.258 270.012 266.536 270.012H257.344C255.9 270.012 254.718 271.144 254.718 272.527V281.331C254.718 282.023 255.007 282.651 255.493 283.117L267.311 294.436C267.783 294.889 268.44 295.165 269.162 295.165C269.884 295.165 270.541 294.889 271.014 294.423L280.205 285.62C280.691 285.167 280.98 284.538 280.98 283.846C280.98 283.155 280.678 282.513 280.205 282.06ZM259.314 276.3C258.224 276.3 257.344 275.458 257.344 274.414C257.344 273.37 258.224 272.527 259.314 272.527C260.404 272.527 261.283 273.37 261.283 274.414C261.283 275.458 260.404 276.3 259.314 276.3Z" fill="#FFD200"/>
<path fill-rule="evenodd" clip-rule="evenodd" d="M51.1842 325.17C51.1842 323.78 52.36 322.654 53.8104 322.654H114.214C115.664 322.654 116.84 323.78 116.84 325.17V330.2C116.84 331.59 115.664 332.716 114.214 332.716H53.8104C52.36 332.716 51.1842 331.59 51.1842 330.2V325.17ZM51.1842 341.519C51.1842 340.13 52.36 339.004 53.8104 339.004H87.9516C89.402 339.004 90.5778 340.13 90.5778 341.519V346.55C90.5778 347.94 89.402 349.065 87.9516 349.065H53.8104C52.36 349.065 51.1842 347.94 51.1842 346.55V341.519ZM53.8104 355.354C52.36 355.354 51.1842 356.479 51.1842 357.869V362.9C51.1842 364.289 52.36 365.415 53.8104 365.415H101.083C102.533 365.415 103.709 364.289 103.709 362.9V357.869C103.709 356.479 102.533 355.354 101.083 355.354H53.8104Z" fill="#E0E7EC"/>
<path d="M89.2647 374.219H60.376C55.2995 374.219 51.1842 378.16 51.1842 383.022C51.1842 387.885 55.2995 391.826 60.376 391.826H89.2647C94.3412 391.826 98.4565 387.885 98.4565 383.022C98.4565 378.16 94.3412 374.219 89.2647 374.219Z" fill="#649DFF"/>
<path fill-rule="evenodd" clip-rule="evenodd" d="M140.476 325.17C140.476 323.78 141.652 322.654 143.103 322.654H203.506C204.957 322.654 206.132 323.78 206.132 325.17V330.2C206.132 331.59 204.957 332.716 203.506 332.716H143.103C141.652 332.716 140.476 331.59 140.476 330.2V325.17ZM140.476 341.519C140.476 340.13 141.652 339.004 143.103 339.004H177.244C178.695 339.004 179.87 340.13 179.87 341.519V346.55C179.87 347.94 178.695 349.065 177.244 349.065H143.103C141.652 349.065 140.476 347.94 140.476 346.55V341.519ZM143.103 355.354C141.652 355.354 140.476 356.479 140.476 357.869V362.9C140.476 364.289 141.652 365.415 143.103 365.415H190.375C191.826 365.415 193.001 364.289 193.001 362.9V357.869C193.001 356.479 191.826 355.354 190.375 355.354H143.103Z" fill="#E0E7EC"/>
<path d="M178.557 374.219H149.668C144.592 374.219 140.476 378.16 140.476 383.022C140.476 387.885 144.592 391.826 149.668 391.826H178.557C183.633 391.826 187.749 387.885 187.749 383.022C187.749 378.16 183.633 374.219 178.557 374.219Z" fill="#649DFF"/>
<path fill-rule="evenodd" clip-rule="evenodd" d="M229.769 325.17C229.769 323.78 230.944 322.654 232.395 322.654H292.798C294.249 322.654 295.424 323.78 295.424 325.17V330.2C295.424 331.59 294.249 332.716 292.798 332.716H232.395C230.944 332.716 229.769 331.59 229.769 330.2V325.17ZM229.769 341.519C229.769 340.13 230.944 339.004 232.395 339.004H266.536C267.987 339.004 269.162 340.13 269.162 341.519V346.55C269.162 347.94 267.987 349.065 266.536 349.065H232.395C230.944 349.065 229.769 347.94 229.769 346.55V341.519ZM232.395 355.354C230.944 355.354 229.769 356.479 229.769 357.869V362.9C229.769 364.289 230.944 365.415 232.395 365.415H279.667C281.118 365.415 282.293 364.289 282.293 362.9V357.869C282.293 356.479 281.118 355.354 279.667 355.354H232.395Z" fill="#E0E7EC"/>
<path d="M267.849 374.219H238.96C233.884 374.219 229.769 378.16 229.769 383.022C229.769 387.885 233.884 391.826 238.96 391.826H267.849C272.925 391.826 277.041 387.885 277.041 383.022C277.041 378.16 272.925 374.219 267.849 374.219Z" fill="#649DFF"/>
</svg>
