<svg width="342" height="109" viewBox="0 0 342 109" fill="none" xmlns="http://www.w3.org/2000/svg">
<path d="M12.2572 18.188L79.5167 4.79531C84.6624 3.77071 89.6644 7.1115 90.689 12.2572L104.082 79.5167C105.106 84.6624 101.765 89.6644 96.6198 90.689L29.3603 104.082C24.2146 105.106 19.2126 101.765 18.188 96.6198L4.79529 29.3603C3.77069 24.2146 7.11149 19.2126 12.2572 18.188Z" fill="url(#paint0_linear_3_24)" stroke="white" stroke-width="5"/>
<path fill-rule="evenodd" clip-rule="evenodd" d="M18.5954 33.717C21.0367 33.2309 22.6212 30.8561 22.1347 28.4126C21.6481 25.969 19.2748 24.3823 16.8335 24.8684C14.3922 25.3545 12.8077 27.7293 13.2943 30.1728C13.7809 32.6164 16.1542 34.2031 18.5954 33.717ZM33.3294 30.7832C35.7707 30.2971 37.3552 27.9223 36.8686 25.4787C36.3821 23.0352 34.0087 21.4485 31.5675 21.9346C29.1262 22.4207 27.5417 24.7955 28.0282 27.239C28.5148 29.6826 30.8881 31.2693 33.3294 30.7832ZM51.6026 22.5449C52.0891 24.9885 50.5046 27.3633 48.0633 27.8494C45.6221 28.3355 43.2487 26.7488 42.7622 24.3052C42.2756 21.8617 43.8601 19.4869 46.3014 19.0008C48.7427 18.5147 51.116 20.1014 51.6026 22.5449Z" fill="#A5F3FC"/>
<path d="M151.856 76.0001C161 76.0001 166.4 69.3761 166.4 61.6721C166.4 56.7041 163.016 50.7281 157.472 49.5761C162.152 47.7761 163.736 43.3841 163.736 39.2081C163.736 31.3601 158.552 26.3921 150.272 26.3921H134.36C132.848 26.3921 131.552 27.6881 131.552 29.2721V73.1201C131.552 74.7041 132.848 76.0001 134.36 76.0001H151.856ZM138.32 46.9841V32.5841H149.552C154.016 32.5841 156.896 35.1041 156.896 39.4241C156.896 43.4561 154.664 46.9841 150.272 46.9841H138.32ZM151.352 52.8881C156.392 52.8881 159.488 57.6401 159.488 61.6001C159.488 65.7761 156.464 69.7361 151.568 69.7361H138.32V52.8881H151.352ZM179.722 56.5601C180.514 50.9441 184.834 47.5601 190.378 47.5601C195.778 47.5601 199.81 50.9441 200.602 56.5601H179.722ZM207.082 59.0801C207.082 48.4241 199.954 41.6561 190.378 41.6561C180.802 41.6561 173.17 48.4241 173.17 59.0801C173.17 69.7361 180.802 76.7201 190.378 76.7201C195.85 76.7201 200.89 74.7041 204.13 70.5281C205.138 69.3761 204.85 67.4321 203.554 66.4241C202.258 65.4881 200.386 65.9201 199.162 67.2881C196.858 69.8081 194.626 70.8161 190.594 70.8161C184.906 70.8161 180.514 67.2881 179.722 61.6721H204.49C205.858 61.6721 207.082 60.5921 207.082 59.0801ZM221.61 82.9841C220.314 81.5441 218.514 80.8241 217.146 81.6881C215.634 82.5521 215.13 84.5681 216.066 85.9361C219.45 90.4001 224.49 92.7761 229.818 92.7761C240.906 92.7761 248.178 86.7281 248.25 70.8881V45.3281C248.25 43.5281 246.81 42.0161 244.938 42.0161C243.138 42.0161 241.698 43.5281 241.698 45.3281V47.6321C239.466 43.7441 234.57 41.6561 229.89 41.6561C220.674 41.6561 212.826 48.5681 212.826 59.2961C212.826 69.9521 220.674 76.7201 229.89 76.7201C234.57 76.7201 239.682 74.4881 241.698 70.5281C241.77 70.8161 241.77 71.0321 241.77 71.3201C241.77 82.4801 237.09 86.5841 229.818 86.5841C226.866 86.5841 223.77 85.3601 221.61 82.9841ZM241.626 59.2241C241.626 66.3521 235.866 70.3121 230.466 70.3121C224.418 70.3121 219.522 66.0641 219.522 59.2241C219.522 52.6721 224.418 48.0641 230.466 48.0641C236.442 48.0641 241.626 52.0241 241.626 59.2241ZM257.419 30.0641C257.419 32.5121 259.507 34.3121 261.955 34.3121C264.475 34.3121 266.491 32.5121 266.491 30.0641C266.491 27.6161 264.475 25.8161 261.955 25.8161C259.507 25.8161 257.419 27.6161 257.419 30.0641ZM265.267 73.0481C265.267 74.8481 263.827 76.3601 261.955 76.3601C260.155 76.3601 258.715 74.8481 258.715 73.0481V45.3281C258.715 43.5281 260.155 42.0161 261.955 42.0161C263.827 42.0161 265.267 43.5281 265.267 45.3281V73.0481ZM282.213 45.3281C282.213 43.5281 280.773 42.0161 278.901 42.0161C277.101 42.0161 275.661 43.5281 275.661 45.3281V73.0481C275.661 74.8481 277.101 76.3601 278.901 76.3601C280.773 76.3601 282.213 74.8481 282.213 73.0481V57.8561C282.213 50.7281 286.965 48.0641 291.717 48.0641C296.325 48.0641 299.133 51.3761 299.133 56.9921V73.0481C299.133 74.8481 300.573 76.3601 302.373 76.3601C304.245 76.3601 305.685 74.8481 305.685 73.0481V56.5601C305.685 47.1281 301.077 41.6561 292.725 41.6561C289.053 41.6561 284.229 43.3841 282.213 47.4161V45.3281ZM319.627 66.9281C319.123 65.6321 317.971 65.0561 316.819 65.0561C315.307 65.0561 313.651 65.9201 313.651 67.6481C313.651 67.9361 313.723 68.2961 313.795 68.6561C315.379 73.8401 320.707 76.7201 325.891 76.7201C332.875 76.7201 338.923 72.9041 338.923 66.6401C338.923 62.8241 337.195 58.5761 330.211 56.8481L325.243 55.6241C323.083 55.1201 320.995 53.8961 320.995 51.7361C320.995 49.2161 323.083 47.3441 326.251 47.3441C328.339 47.3441 330.067 48.1361 331.579 50.1521C332.299 51.0881 333.019 51.5921 333.955 51.5921C334.963 51.5921 337.051 50.8001 337.051 48.6401C337.051 48.2081 336.979 47.6321 336.691 47.1281C334.747 43.2401 330.499 41.6561 326.107 41.6561C319.339 41.6561 314.371 45.9761 314.371 51.5201C314.371 56.8481 317.755 59.6561 323.443 61.1681L328.051 62.2481C330.571 62.8241 332.515 64.0481 332.515 66.4961C332.515 69.1601 329.995 70.9601 326.611 70.9601C323.227 70.9601 320.563 69.3761 319.627 66.9281Z" fill="white"/>
<path d="M70.3261 64.7922C70.1507 63.8728 69.3017 63.2651 68.347 63.4473C67.4275 63.6227 66.862 64.5003 67.0374 65.4197L71.1194 86.8137C71.2948 87.7331 72.1437 88.3408 73.0632 88.1654C74.0179 87.9832 74.5835 87.1057 74.4081 86.1863L70.3261 64.7922ZM82.1008 64.1948L85.8792 83.9976C86.0546 84.917 86.9035 85.5246 87.823 85.3492C88.7777 85.167 89.3433 84.2895 89.1679 83.3701L85.3895 63.5673L91.4718 62.4068C92.3205 62.2449 92.8995 61.4381 92.7308 60.554C92.5689 59.7053 91.7335 59.1684 90.8848 59.3303L75.3962 62.2855C74.5475 62.4475 73.9685 63.2543 74.1304 64.103C74.2991 64.987 75.1345 65.524 75.9832 65.362L82.1008 64.1948Z" fill="white"/>
<defs>
<linearGradient id="paint0_linear_3_24" x1="41.4736" y1="34.3647" x2="74.0907" y2="110.468" gradientUnits="userSpaceOnUse">
<stop stop-color="#3B82F6"/>
<stop offset="1" stop-color="#06B6D4" stop-opacity="0"/>
</linearGradient>
</defs>
</svg>
