<svg width="342" height="109" viewBox="0 0 342 109" fill="none" xmlns="http://www.w3.org/2000/svg">
<path d="M12.2572 18.1879L79.5167 4.79525C84.6624 3.77064 89.6644 7.11144 90.689 12.2571L104.082 79.5166C105.106 84.6623 101.765 89.6643 96.6198 90.6889L29.3603 104.082C24.2146 105.106 19.2126 101.765 18.188 96.6197L4.79529 29.3602C3.77069 24.2145 7.11149 19.2125 12.2572 18.1879Z" fill="url(#paint0_linear_3_17)" stroke="black" stroke-width="5"/>
<path fill-rule="evenodd" clip-rule="evenodd" d="M18.5954 33.717C21.0367 33.2309 22.6212 30.8561 22.1347 28.4126C21.6481 25.969 19.2748 24.3823 16.8335 24.8684C14.3922 25.3545 12.8077 27.7293 13.2943 30.1728C13.7809 32.6164 16.1542 34.2031 18.5954 33.717ZM33.3294 30.7832C35.7707 30.2971 37.3552 27.9223 36.8686 25.4787C36.3821 23.0352 34.0087 21.4485 31.5675 21.9346C29.1262 22.4207 27.5417 24.7955 28.0282 27.239C28.5148 29.6826 30.8881 31.2693 33.3294 30.7832ZM51.6026 22.5449C52.0891 24.9885 50.5046 27.3633 48.0633 27.8494C45.6221 28.3355 43.2487 26.7488 42.7622 24.3052C42.2756 21.8617 43.8601 19.4869 46.3014 19.0008C48.7427 18.5147 51.116 20.1014 51.6026 22.5449Z" fill="#A5F3FC"/>
<path d="M151.856 76C161 76 166.4 69.376 166.4 61.672C166.4 56.704 163.016 50.728 157.472 49.576C162.152 47.776 163.736 43.384 163.736 39.208C163.736 31.36 158.552 26.392 150.272 26.392H134.36C132.848 26.392 131.552 27.688 131.552 29.272V73.12C131.552 74.704 132.848 76 134.36 76H151.856ZM138.32 46.984V32.584H149.552C154.016 32.584 156.896 35.104 156.896 39.424C156.896 43.456 154.664 46.984 150.272 46.984H138.32ZM151.352 52.888C156.392 52.888 159.488 57.64 159.488 61.6C159.488 65.776 156.464 69.736 151.568 69.736H138.32V52.888H151.352ZM179.722 56.56C180.514 50.944 184.834 47.56 190.378 47.56C195.778 47.56 199.81 50.944 200.602 56.56H179.722ZM207.082 59.08C207.082 48.424 199.954 41.656 190.378 41.656C180.802 41.656 173.17 48.424 173.17 59.08C173.17 69.736 180.802 76.72 190.378 76.72C195.85 76.72 200.89 74.704 204.13 70.528C205.138 69.376 204.85 67.432 203.554 66.424C202.258 65.488 200.386 65.92 199.162 67.288C196.858 69.808 194.626 70.816 190.594 70.816C184.906 70.816 180.514 67.288 179.722 61.672H204.49C205.858 61.672 207.082 60.592 207.082 59.08ZM221.61 82.984C220.314 81.544 218.514 80.824 217.146 81.688C215.634 82.552 215.13 84.568 216.066 85.936C219.45 90.4 224.49 92.776 229.818 92.776C240.906 92.776 248.178 86.728 248.25 70.888V45.328C248.25 43.528 246.81 42.016 244.938 42.016C243.138 42.016 241.698 43.528 241.698 45.328V47.632C239.466 43.744 234.57 41.656 229.89 41.656C220.674 41.656 212.826 48.568 212.826 59.296C212.826 69.952 220.674 76.72 229.89 76.72C234.57 76.72 239.682 74.488 241.698 70.528C241.77 70.816 241.77 71.032 241.77 71.32C241.77 82.48 237.09 86.584 229.818 86.584C226.866 86.584 223.77 85.36 221.61 82.984ZM241.626 59.224C241.626 66.352 235.866 70.312 230.466 70.312C224.418 70.312 219.522 66.064 219.522 59.224C219.522 52.672 224.418 48.064 230.466 48.064C236.442 48.064 241.626 52.024 241.626 59.224ZM257.419 30.064C257.419 32.512 259.507 34.312 261.955 34.312C264.475 34.312 266.491 32.512 266.491 30.064C266.491 27.616 264.475 25.816 261.955 25.816C259.507 25.816 257.419 27.616 257.419 30.064ZM265.267 73.048C265.267 74.848 263.827 76.36 261.955 76.36C260.155 76.36 258.715 74.848 258.715 73.048V45.328C258.715 43.528 260.155 42.016 261.955 42.016C263.827 42.016 265.267 43.528 265.267 45.328V73.048ZM282.213 45.328C282.213 43.528 280.773 42.016 278.901 42.016C277.101 42.016 275.661 43.528 275.661 45.328V73.048C275.661 74.848 277.101 76.36 278.901 76.36C280.773 76.36 282.213 74.848 282.213 73.048V57.856C282.213 50.728 286.965 48.064 291.717 48.064C296.325 48.064 299.133 51.376 299.133 56.992V73.048C299.133 74.848 300.573 76.36 302.373 76.36C304.245 76.36 305.685 74.848 305.685 73.048V56.56C305.685 47.128 301.077 41.656 292.725 41.656C289.053 41.656 284.229 43.384 282.213 47.416V45.328ZM319.627 66.928C319.123 65.632 317.971 65.056 316.819 65.056C315.307 65.056 313.651 65.92 313.651 67.648C313.651 67.936 313.723 68.296 313.795 68.656C315.379 73.84 320.707 76.72 325.891 76.72C332.875 76.72 338.923 72.904 338.923 66.64C338.923 62.824 337.195 58.576 330.211 56.848L325.243 55.624C323.083 55.12 320.995 53.896 320.995 51.736C320.995 49.216 323.083 47.344 326.251 47.344C328.339 47.344 330.067 48.136 331.579 50.152C332.299 51.088 333.019 51.592 333.955 51.592C334.963 51.592 337.051 50.8 337.051 48.64C337.051 48.208 336.979 47.632 336.691 47.128C334.747 43.24 330.499 41.656 326.107 41.656C319.339 41.656 314.371 45.976 314.371 51.52C314.371 56.848 317.755 59.656 323.443 61.168L328.051 62.248C330.571 62.824 332.515 64.048 332.515 66.496C332.515 69.16 329.995 70.96 326.611 70.96C323.227 70.96 320.563 69.376 319.627 66.928Z" fill="black"/>
<path d="M70.3261 64.7922C70.1507 63.8728 69.3017 63.2651 68.347 63.4473C67.4275 63.6227 66.862 64.5003 67.0374 65.4197L71.1194 86.8137C71.2948 87.7331 72.1437 88.3408 73.0632 88.1654C74.0179 87.9832 74.5835 87.1057 74.4081 86.1863L70.3261 64.7922ZM82.1008 64.1948L85.8792 83.9976C86.0546 84.917 86.9035 85.5246 87.823 85.3492C88.7777 85.167 89.3433 84.2895 89.1679 83.3701L85.3895 63.5673L91.4718 62.4068C92.3205 62.2449 92.8995 61.4381 92.7308 60.554C92.5689 59.7053 91.7335 59.1684 90.8848 59.3303L75.3962 62.2855C74.5475 62.4475 73.9685 63.2543 74.1304 64.103C74.2991 64.987 75.1345 65.524 75.9832 65.362L82.1008 64.1948Z" fill="black"/>
<defs>
<linearGradient id="paint0_linear_3_17" x1="41.4736" y1="34.3646" x2="74.0907" y2="110.468" gradientUnits="userSpaceOnUse">
<stop stop-color="#3B82F6"/>
<stop offset="1" stop-color="#06B6D4" stop-opacity="0"/>
</linearGradient>
</defs>
</svg>
